<svg width="408" height="96" viewBox="0 0 408 96" fill="none" xmlns="http://www.w3.org/2000/svg">
<mask id="path-1-inside-1" fill="white">
<path fillRule="evenodd" clipRule="evenodd" d="M408 0H0V96H408V0ZM219.702 69.376V72.1604H230.909V69.376H228.107V19H225.306V21.7844H222.504V24.5859H219.702V27.3875H216.901V30.189H219.702V44.1795H216.901V41.3779H205.712V44.1795H202.91V46.981H200.109V52.584H197.325V60.9715H200.109V66.5745H202.91V69.376H205.712V72.1604H216.901V69.376H219.702ZM216.901 69.376H211.315V66.5745H208.514V60.9715H205.712V52.584H208.514V46.981H211.315V44.1795H216.901V46.981H219.702V66.5745H216.901V69.376ZM62.9544 72.1604H43.3609V69.376H48.9639V60.9715H46.1624V58.1699H32.1719V60.9715H29.3704V52.584H32.1719V55.3684H46.1624V52.584H43.3609V44.1795H40.5764V35.792H37.7749V27.3875H40.5764V24.5859H46.1624V35.792H48.9639V44.1795H51.7654V52.584H54.5669V60.9715H57.3684V69.376H62.9544V72.1604ZM34.9734 44.1795V35.792H37.7749V44.1795H34.9734ZM34.9734 44.1795H32.1719V52.584H34.9734V44.1795ZM26.5689 60.9715H29.3704V69.376H34.9734V72.1604H21V69.376H26.5689V60.9715ZM81.1471 72.1604H67.1566V69.376H69.9411V49.7825H67.1566V46.981H69.9411V44.1795H72.7426V41.3779H75.5441V38.5764H78.3456V44.1795H81.1471V46.981H78.3456V69.376H81.1471V72.1604ZM97.9391 46.981V69.376H100.741V72.1604H86.7331V69.376H89.5346V46.981H86.7331V44.1795H81.1471V41.3779H92.3361V44.1795H95.1376V46.981H97.9391ZM100.741 44.1795V46.981H97.9391V44.1795H100.741ZM100.741 44.1795H106.327V46.981H109.128V69.376H106.327V72.1604H120.317V69.376H117.533V46.981H114.731V44.1795H111.93V41.3779H100.741V44.1795ZM146.931 72.1604H155.336V69.376H152.534V46.981H149.733V44.1795H146.931V41.3779H130.139V44.1795H127.338V46.981H124.554V49.7825H132.941V46.981H135.742V44.1795H141.346V46.981H144.13V52.584H141.346V55.3684H132.941V58.1699H127.338V60.9715H124.554V66.5745H127.338V69.376H130.139V72.1604H141.346V69.376H146.931V72.1604ZM141.346 69.376H135.742V66.5745H132.941V60.9715H135.742V58.1699H141.346V55.3684H144.13V66.5745H141.346V69.376ZM173.529 72.1604H159.538V69.376H162.323V49.7825H159.538V46.981H162.323V44.1795H165.124V41.3779H167.926V38.5764H170.727V44.1795H173.529V46.981H170.727V69.376H173.529V72.1604ZM180.515 44.1795H173.529V41.3779H186.118V44.1795H188.92V46.981H191.722V69.376H194.523V72.1604H180.515V69.376H183.317V46.981H180.515V44.1795ZM265.893 72.1604H257.489V69.376H251.903V66.5745H254.687V55.3684H251.903V52.584H254.687V46.981H251.903V44.1795H246.3V46.981H243.498V49.7825H235.111V46.981H237.895V44.1795H240.697V41.3779H257.489V44.1795H260.29V46.981H263.092V69.376H265.893V72.1604ZM251.903 55.3684V58.1699H246.3V60.9715H243.498V66.5745H246.3V69.376H251.903V72.1604H240.697V69.376H237.895V66.5745H235.111V60.9715H237.895V58.1699H243.498V55.3684H251.903ZM292.508 72.1604H312.101V69.376H306.498V52.584H309.3V46.981H312.101V41.3779H314.903V35.792H317.704V30.189H323.29V27.3875H309.3V30.189H314.903V35.792H312.101V41.3779H309.3V46.981H306.498V52.584H303.697V46.981H300.912V41.3779H298.111V35.792H295.309V30.189H300.912V27.3875H281.336V30.189H286.905V35.792H289.706V41.3779H292.508V46.981H295.309V52.584H298.111V69.376H292.508V72.1604ZM342.832 72.1604H326.04V69.376H323.239V66.5745H320.437V60.9715H317.653V52.584H320.437V46.981H323.239V44.1795H326.04V41.3779H342.832V44.1795H345.634V46.981H348.435V52.584H326.04V60.9715H328.842V66.5745H331.643V69.376H342.832V72.1604ZM345.634 66.5745V69.376H342.832V66.5745H345.634ZM345.634 66.5745V63.773H348.435V66.5745H345.634ZM326.04 49.7825H340.031V46.981H337.229V44.1795H328.842V46.981H326.04V49.7825ZM351.271 72.1604H365.262V69.376H362.46V46.981H365.262V44.1795H372.248V46.981H375.05V69.376H372.248V72.1604H386.256V69.376H383.454V46.981H380.653V44.1795H377.851V41.3779H365.262V44.1795H362.46V19H359.659V21.7844H356.857V24.5859H354.056V27.3875H351.271V30.189H354.056V69.376H351.271V72.1604Z"/>
</mask>
<path fillRule="evenodd" clipRule="evenodd" d="M408 0H0V96H408V0ZM219.702 69.376V72.1604H230.909V69.376H228.107V19H225.306V21.7844H222.504V24.5859H219.702V27.3875H216.901V30.189H219.702V44.1795H216.901V41.3779H205.712V44.1795H202.91V46.981H200.109V52.584H197.325V60.9715H200.109V66.5745H202.91V69.376H205.712V72.1604H216.901V69.376H219.702ZM216.901 69.376H211.315V66.5745H208.514V60.9715H205.712V52.584H208.514V46.981H211.315V44.1795H216.901V46.981H219.702V66.5745H216.901V69.376ZM62.9544 72.1604H43.3609V69.376H48.9639V60.9715H46.1624V58.1699H32.1719V60.9715H29.3704V52.584H32.1719V55.3684H46.1624V52.584H43.3609V44.1795H40.5764V35.792H37.7749V27.3875H40.5764V24.5859H46.1624V35.792H48.9639V44.1795H51.7654V52.584H54.5669V60.9715H57.3684V69.376H62.9544V72.1604ZM34.9734 44.1795V35.792H37.7749V44.1795H34.9734ZM34.9734 44.1795H32.1719V52.584H34.9734V44.1795ZM26.5689 60.9715H29.3704V69.376H34.9734V72.1604H21V69.376H26.5689V60.9715ZM81.1471 72.1604H67.1566V69.376H69.9411V49.7825H67.1566V46.981H69.9411V44.1795H72.7426V41.3779H75.5441V38.5764H78.3456V44.1795H81.1471V46.981H78.3456V69.376H81.1471V72.1604ZM97.9391 46.981V69.376H100.741V72.1604H86.7331V69.376H89.5346V46.981H86.7331V44.1795H81.1471V41.3779H92.3361V44.1795H95.1376V46.981H97.9391ZM100.741 44.1795V46.981H97.9391V44.1795H100.741ZM100.741 44.1795H106.327V46.981H109.128V69.376H106.327V72.1604H120.317V69.376H117.533V46.981H114.731V44.1795H111.93V41.3779H100.741V44.1795ZM146.931 72.1604H155.336V69.376H152.534V46.981H149.733V44.1795H146.931V41.3779H130.139V44.1795H127.338V46.981H124.554V49.7825H132.941V46.981H135.742V44.1795H141.346V46.981H144.13V52.584H141.346V55.3684H132.941V58.1699H127.338V60.9715H124.554V66.5745H127.338V69.376H130.139V72.1604H141.346V69.376H146.931V72.1604ZM141.346 69.376H135.742V66.5745H132.941V60.9715H135.742V58.1699H141.346V55.3684H144.13V66.5745H141.346V69.376ZM173.529 72.1604H159.538V69.376H162.323V49.7825H159.538V46.981H162.323V44.1795H165.124V41.3779H167.926V38.5764H170.727V44.1795H173.529V46.981H170.727V69.376H173.529V72.1604ZM180.515 44.1795H173.529V41.3779H186.118V44.1795H188.92V46.981H191.722V69.376H194.523V72.1604H180.515V69.376H183.317V46.981H180.515V44.1795ZM265.893 72.1604H257.489V69.376H251.903V66.5745H254.687V55.3684H251.903V52.584H254.687V46.981H251.903V44.1795H246.3V46.981H243.498V49.7825H235.111V46.981H237.895V44.1795H240.697V41.3779H257.489V44.1795H260.29V46.981H263.092V69.376H265.893V72.1604ZM251.903 55.3684V58.1699H246.3V60.9715H243.498V66.5745H246.3V69.376H251.903V72.1604H240.697V69.376H237.895V66.5745H235.111V60.9715H237.895V58.1699H243.498V55.3684H251.903ZM292.508 72.1604H312.101V69.376H306.498V52.584H309.3V46.981H312.101V41.3779H314.903V35.792H317.704V30.189H323.29V27.3875H309.3V30.189H314.903V35.792H312.101V41.3779H309.3V46.981H306.498V52.584H303.697V46.981H300.912V41.3779H298.111V35.792H295.309V30.189H300.912V27.3875H281.336V30.189H286.905V35.792H289.706V41.3779H292.508V46.981H295.309V52.584H298.111V69.376H292.508V72.1604ZM342.832 72.1604H326.04V69.376H323.239V66.5745H320.437V60.9715H317.653V52.584H320.437V46.981H323.239V44.1795H326.04V41.3779H342.832V44.1795H345.634V46.981H348.435V52.584H326.04V60.9715H328.842V66.5745H331.643V69.376H342.832V72.1604ZM345.634 66.5745V69.376H342.832V66.5745H345.634ZM345.634 66.5745V63.773H348.435V66.5745H345.634ZM326.04 49.7825H340.031V46.981H337.229V44.1795H328.842V46.981H326.04V49.7825ZM351.271 72.1604H365.262V69.376H362.46V46.981H365.262V44.1795H372.248V46.981H375.05V69.376H372.248V72.1604H386.256V69.376H383.454V46.981H380.653V44.1795H377.851V41.3779H365.262V44.1795H362.46V19H359.659V21.7844H356.857V24.5859H354.056V27.3875H351.271V30.189H354.056V69.376H351.271V72.1604Z" fill="white"/>
<path d="M0 0V-1H-1V0H0ZM408 0H409V-1H408V0ZM0 96H-1V97H0V96ZM408 96V97H409V96H408ZM219.702 72.1604H218.702V73.1604H219.702V72.1604ZM219.702 69.376H220.702V68.376H219.702V69.376ZM230.909 72.1604V73.1604H231.909V72.1604H230.909ZM230.909 69.376H231.909V68.376H230.909V69.376ZM228.107 69.376H227.107V70.376H228.107V69.376ZM228.107 19H229.107V18H228.107V19ZM225.306 19V18H224.306V19H225.306ZM225.306 21.7844V22.7844H226.306V21.7844H225.306ZM222.504 21.7844V20.7844H221.504V21.7844H222.504ZM222.504 24.5859V25.5859H223.504V24.5859H222.504ZM219.702 24.5859V23.5859H218.702V24.5859H219.702ZM219.702 27.3875V28.3875H220.702V27.3875H219.702ZM216.901 27.3875V26.3875H215.901V27.3875H216.901ZM216.901 30.189H215.901V31.189H216.901V30.189ZM219.702 30.189H220.702V29.189H219.702V30.189ZM219.702 44.1795V45.1795H220.702V44.1795H219.702ZM216.901 41.3779H217.901V40.3779H216.901V41.3779ZM205.712 41.3779V40.3779H204.712V41.3779H205.712ZM205.712 44.1795V45.1795H206.712V44.1795H205.712ZM202.91 44.1795V43.1795H201.91V44.1795H202.91ZM202.91 46.981V47.981H203.91V46.981H202.91ZM200.109 46.981V45.981H199.109V46.981H200.109ZM200.109 52.584V53.584H201.109V52.584H200.109ZM197.325 52.584V51.584H196.325V52.584H197.325ZM197.325 60.9715H196.325V61.9715H197.325V60.9715ZM200.109 60.9715H201.109V59.9715H200.109V60.9715ZM200.109 66.5745H199.109V67.5745H200.109V66.5745ZM202.91 66.5745H203.91V65.5745H202.91V66.5745ZM202.91 69.376H201.91V70.376H202.91V69.376ZM205.712 69.376H206.712V68.376H205.712V69.376ZM205.712 72.1604H204.712V73.1604H205.712V72.1604ZM216.901 72.1604V73.1604H217.901V72.1604H216.901ZM211.315 69.376H210.315V70.376H211.315V69.376ZM211.315 66.5745H212.315V65.5745H211.315V66.5745ZM208.514 66.5745H207.514V67.5745H208.514V66.5745ZM208.514 60.9715H209.514V59.9715H208.514V60.9715ZM205.712 60.9715H204.712V61.9715H205.712V60.9715ZM205.712 52.584V51.584H204.712V52.584H205.712ZM208.514 52.584V53.584H209.514V52.584H208.514ZM208.514 46.981V45.981H207.514V46.981H208.514ZM211.315 46.981V47.981H212.315V46.981H211.315ZM211.315 44.1795V43.1795H210.315V44.1795H211.315ZM216.901 46.981H215.901V47.981H216.901V46.981ZM219.702 46.981H220.702V45.981H219.702V46.981ZM219.702 66.5745V67.5745H220.702V66.5745H219.702ZM216.901 66.5745V65.5745H215.901V66.5745H216.901ZM43.3609 72.1604H42.3609V73.1604H43.3609V72.1604ZM62.9544 72.1604V73.1604H63.9544V72.1604H62.9544ZM43.3609 69.376V68.376H42.3609V69.376H43.3609ZM48.9639 69.376V70.376H49.9639V69.376H48.9639ZM48.9639 60.9715H49.9639V59.9715H48.9639V60.9715ZM46.1624 60.9715H45.1624V61.9715H46.1624V60.9715ZM46.1624 58.1699H47.1624V57.1699H46.1624V58.1699ZM32.1719 58.1699V57.1699H31.1719V58.1699H32.1719ZM32.1719 60.9715V61.9715H33.1719V60.9715H32.1719ZM29.3704 52.584V51.584H28.3704V52.584H29.3704ZM32.1719 55.3684H31.1719V56.3684H32.1719V55.3684ZM46.1624 55.3684V56.3684H47.1624V55.3684H46.1624ZM46.1624 52.584H47.1624V51.584H46.1624V52.584ZM43.3609 52.584H42.3609V53.584H43.3609V52.584ZM43.3609 44.1795H44.3609V43.1795H43.3609V44.1795ZM40.5764 44.1795H39.5764V45.1795H40.5764V44.1795ZM40.5764 35.792H41.5764V34.792H40.5764V35.792ZM37.7749 27.3875V26.3875H36.7749V27.3875H37.7749ZM40.5764 27.3875V28.3875H41.5764V27.3875H40.5764ZM40.5764 24.5859V23.5859H39.5764V24.5859H40.5764ZM46.1624 24.5859H47.1624V23.5859H46.1624V24.5859ZM46.1624 35.792H45.1624V36.792H46.1624V35.792ZM48.9639 35.792H49.9639V34.792H48.9639V35.792ZM48.9639 44.1795H47.9639V45.1795H48.9639V44.1795ZM51.7654 44.1795H52.7654V43.1795H51.7654V44.1795ZM51.7654 52.584H50.7654V53.584H51.7654V52.584ZM54.5669 52.584H55.5669V51.584H54.5669V52.584ZM54.5669 60.9715H53.5669V61.9715H54.5669V60.9715ZM57.3684 60.9715H58.3684V59.9715H57.3684V60.9715ZM57.3684 69.376H56.3684V70.376H57.3684V69.376ZM62.9544 69.376H63.9544V68.376H62.9544V69.376ZM34.9734 35.792V34.792H33.9734V35.792H34.9734ZM37.7749 44.1795V45.1795H38.7749V44.1795H37.7749ZM32.1719 44.1795V43.1795H31.1719V44.1795H32.1719ZM34.9734 52.584V53.584H35.9734V52.584H34.9734ZM26.5689 60.9715V59.9715H25.5689V60.9715H26.5689ZM29.3704 69.376H28.3704V70.376H29.3704V69.376ZM34.9734 69.376H35.9734V68.376H34.9734V69.376ZM34.9734 72.1604V73.1604H35.9734V72.1604H34.9734ZM21 72.1604H20V73.1604H21V72.1604ZM21 69.376V68.376H20V69.376H21ZM26.5689 69.376V70.376H27.5689V69.376H26.5689ZM67.1566 72.1604H66.1566V73.1604H67.1566V72.1604ZM81.1471 72.1604V73.1604H82.1471V72.1604H81.1471ZM67.1566 69.376V68.376H66.1566V69.376H67.1566ZM69.9411 69.376V70.376H70.9411V69.376H69.9411ZM69.9411 49.7825H70.9411V48.7825H69.9411V49.7825ZM67.1566 49.7825H66.1566V50.7825H67.1566V49.7825ZM67.1566 46.981V45.981H66.1566V46.981H67.1566ZM69.9411 46.981V47.981H70.9411V46.981H69.9411ZM69.9411 44.1795V43.1795H68.9411V44.1795H69.9411ZM72.7426 44.1795V45.1795H73.7426V44.1795H72.7426ZM72.7426 41.3779V40.3779H71.7426V41.3779H72.7426ZM75.5441 41.3779V42.3779H76.5441V41.3779H75.5441ZM75.5441 38.5764V37.5764H74.5441V38.5764H75.5441ZM78.3456 38.5764H79.3456V37.5764H78.3456V38.5764ZM78.3456 44.1795H77.3456V45.1795H78.3456V44.1795ZM81.1471 46.981V47.981H82.1471V46.981H81.1471ZM78.3456 46.981V45.981H77.3456V46.981H78.3456ZM78.3456 69.376H77.3456V70.376H78.3456V69.376ZM81.1471 69.376H82.1471V68.376H81.1471V69.376ZM97.9391 69.376H96.9391V70.376H97.9391V69.376ZM100.741 69.376H101.741V68.376H100.741V69.376ZM100.741 72.1604V73.1604H101.741V72.1604H100.741ZM86.7331 72.1604H85.7331V73.1604H86.7331V72.1604ZM86.7331 69.376V68.376H85.7331V69.376H86.7331ZM89.5346 69.376V70.376H90.5346V69.376H89.5346ZM89.5346 46.981H90.5346V45.981H89.5346V46.981ZM86.7331 46.981H85.7331V47.981H86.7331V46.981ZM86.7331 44.1795H87.7331V43.1795H86.7331V44.1795ZM81.1471 41.3779V40.3779H80.1471V41.3779H81.1471ZM92.3361 41.3779H93.3361V40.3779H92.3361V41.3779ZM92.3361 44.1795H91.3361V45.1795H92.3361V44.1795ZM95.1376 44.1795H96.1376V43.1795H95.1376V44.1795ZM95.1376 46.981H94.1376V47.981H95.1376V46.981ZM100.741 46.981V47.981H101.741V46.981H100.741ZM97.9391 44.1795V43.1795H96.9391V44.1795H97.9391ZM106.327 44.1795H107.327V43.1795H106.327V44.1795ZM106.327 46.981H105.327V47.981H106.327V46.981ZM109.128 46.981H110.128V45.981H109.128V46.981ZM109.128 69.376V70.376H110.128V69.376H109.128ZM106.327 69.376V68.376H105.327V69.376H106.327ZM106.327 72.1604H105.327V73.1604H106.327V72.1604ZM120.317 72.1604V73.1604H121.317V72.1604H120.317ZM120.317 69.376H121.317V68.376H120.317V69.376ZM117.533 69.376H116.533V70.376H117.533V69.376ZM117.533 46.981H118.533V45.981H117.533V46.981ZM114.731 46.981H113.731V47.981H114.731V46.981ZM114.731 44.1795H115.731V43.1795H114.731V44.1795ZM111.93 44.1795H110.93V45.1795H111.93V44.1795ZM111.93 41.3779H112.93V40.3779H111.93V41.3779ZM100.741 41.3779V40.3779H99.7406V41.3779H100.741ZM155.336 72.1604V73.1604H156.336V72.1604H155.336ZM146.931 72.1604H145.931V73.1604H146.931V72.1604ZM155.336 69.376H156.336V68.376H155.336V69.376ZM152.534 69.376H151.534V70.376H152.534V69.376ZM152.534 46.981H153.534V45.981H152.534V46.981ZM149.733 46.981H148.733V47.981H149.733V46.981ZM149.733 44.1795H150.733V43.1795H149.733V44.1795ZM146.931 44.1795H145.931V45.1795H146.931V44.1795ZM146.931 41.3779H147.931V40.3779H146.931V41.3779ZM130.139 41.3779V40.3779H129.139V41.3779H130.139ZM130.139 44.1795V45.1795H131.139V44.1795H130.139ZM127.338 44.1795V43.1795H126.338V44.1795H127.338ZM127.338 46.981V47.981H128.338V46.981H127.338ZM124.554 46.981V45.981H123.554V46.981H124.554ZM124.554 49.7825H123.554V50.7825H124.554V49.7825ZM132.941 49.7825V50.7825H133.941V49.7825H132.941ZM132.941 46.981V45.981H131.941V46.981H132.941ZM135.742 46.981V47.981H136.742V46.981H135.742ZM135.742 44.1795V43.1795H134.742V44.1795H135.742ZM141.346 44.1795H142.346V43.1795H141.346V44.1795ZM141.346 46.981H140.346V47.981H141.346V46.981ZM144.13 46.981H145.13V45.981H144.13V46.981ZM144.13 52.584V53.584H145.13V52.584H144.13ZM141.346 52.584V51.584H140.346V52.584H141.346ZM132.941 55.3684V54.3684H131.941V55.3684H132.941ZM132.941 58.1699V59.1699H133.941V58.1699H132.941ZM127.338 58.1699V57.1699H126.338V58.1699H127.338ZM127.338 60.9715V61.9715H128.338V60.9715H127.338ZM124.554 60.9715V59.9715H123.554V60.9715H124.554ZM124.554 66.5745H123.554V67.5745H124.554V66.5745ZM127.338 66.5745H128.338V65.5745H127.338V66.5745ZM127.338 69.376H126.338V70.376H127.338V69.376ZM130.139 69.376H131.139V68.376H130.139V69.376ZM130.139 72.1604H129.139V73.1604H130.139V72.1604ZM141.346 72.1604V73.1604H142.346V72.1604H141.346ZM146.931 69.376H147.931V68.376H146.931V69.376ZM135.742 69.376H134.742V70.376H135.742V69.376ZM135.742 66.5745H136.742V65.5745H135.742V66.5745ZM132.941 66.5745H131.941V67.5745H132.941V66.5745ZM132.941 60.9715V59.9715H131.941V60.9715H132.941ZM135.742 60.9715V61.9715H136.742V60.9715H135.742ZM135.742 58.1699V57.1699H134.742V58.1699H135.742ZM141.346 58.1699V59.1699H142.346V58.1699H141.346ZM144.13 55.3684H145.13V54.3684H144.13V55.3684ZM144.13 66.5745V67.5745H145.13V66.5745H144.13ZM141.346 66.5745V65.5745H140.346V66.5745H141.346ZM159.538 72.1604H158.538V73.1604H159.538V72.1604ZM173.529 72.1604V73.1604H174.529V72.1604H173.529ZM159.538 69.376V68.376H158.538V69.376H159.538ZM162.323 69.376V70.376H163.323V69.376H162.323ZM162.323 49.7825H163.323V48.7825H162.323V49.7825ZM159.538 49.7825H158.538V50.7825H159.538V49.7825ZM159.538 46.981V45.981H158.538V46.981H159.538ZM162.323 46.981V47.981H163.323V46.981H162.323ZM162.323 44.1795V43.1795H161.323V44.1795H162.323ZM165.124 44.1795V45.1795H166.124V44.1795H165.124ZM165.124 41.3779V40.3779H164.124V41.3779H165.124ZM167.926 41.3779V42.3779H168.926V41.3779H167.926ZM167.926 38.5764V37.5764H166.926V38.5764H167.926ZM170.727 38.5764H171.727V37.5764H170.727V38.5764ZM170.727 44.1795H169.727V45.1795H170.727V44.1795ZM173.529 46.981V47.981H174.529V46.981H173.529ZM170.727 46.981V45.981H169.727V46.981H170.727ZM170.727 69.376H169.727V70.376H170.727V69.376ZM173.529 69.376H174.529V68.376H173.529V69.376ZM180.515 44.1795H181.515V43.1795H180.515V44.1795ZM173.529 41.3779V40.3779H172.529V41.3779H173.529ZM186.118 41.3779H187.118V40.3779H186.118V41.3779ZM186.118 44.1795H185.118V45.1795H186.118V44.1795ZM188.92 44.1795H189.92V43.1795H188.92V44.1795ZM188.92 46.981H187.92V47.981H188.92V46.981ZM191.722 46.981H192.722V45.981H191.722V46.981ZM191.722 69.376H190.722V70.376H191.722V69.376ZM194.523 69.376H195.523V68.376H194.523V69.376ZM194.523 72.1604V73.1604H195.523V72.1604H194.523ZM180.515 72.1604H179.515V73.1604H180.515V72.1604ZM180.515 69.376V68.376H179.515V69.376H180.515ZM183.317 69.376V70.376H184.317V69.376H183.317ZM183.317 46.981H184.317V45.981H183.317V46.981ZM180.515 46.981H179.515V47.981H180.515V46.981ZM257.489 72.1604H256.489V73.1604H257.489V72.1604ZM265.893 72.1604V73.1604H266.893V72.1604H265.893ZM257.489 69.376H258.489V68.376H257.489V69.376ZM251.903 66.5745V65.5745H250.903V66.5745H251.903ZM254.687 66.5745V67.5745H255.687V66.5745H254.687ZM254.687 55.3684H255.687V54.3684H254.687V55.3684ZM251.903 52.584V51.584H250.903V52.584H251.903ZM254.687 52.584V53.584H255.687V52.584H254.687ZM254.687 46.981H255.687V45.981H254.687V46.981ZM251.903 46.981H250.903V47.981H251.903V46.981ZM251.903 44.1795H252.903V43.1795H251.903V44.1795ZM246.3 44.1795V43.1795H245.3V44.1795H246.3ZM246.3 46.981V47.981H247.3V46.981H246.3ZM243.498 46.981V45.981H242.498V46.981H243.498ZM243.498 49.7825V50.7825H244.498V49.7825H243.498ZM235.111 49.7825H234.111V50.7825H235.111V49.7825ZM235.111 46.981V45.981H234.111V46.981H235.111ZM237.895 46.981V47.981H238.895V46.981H237.895ZM237.895 44.1795V43.1795H236.895V44.1795H237.895ZM240.697 44.1795V45.1795H241.697V44.1795H240.697ZM240.697 41.3779V40.3779H239.697V41.3779H240.697ZM257.489 41.3779H258.489V40.3779H257.489V41.3779ZM257.489 44.1795H256.489V45.1795H257.489V44.1795ZM260.29 44.1795H261.29V43.1795H260.29V44.1795ZM260.29 46.981H259.29V47.981H260.29V46.981ZM263.092 46.981H264.092V45.981H263.092V46.981ZM263.092 69.376H262.092V70.376H263.092V69.376ZM265.893 69.376H266.893V68.376H265.893V69.376ZM251.903 58.1699V59.1699H252.903V58.1699H251.903ZM246.3 58.1699V57.1699H245.3V58.1699H246.3ZM246.3 60.9715V61.9715H247.3V60.9715H246.3ZM243.498 60.9715V59.9715H242.498V60.9715H243.498ZM243.498 66.5745H242.498V67.5745H243.498V66.5745ZM246.3 66.5745H247.3V65.5745H246.3V66.5745ZM246.3 69.376H245.3V70.376H246.3V69.376ZM251.903 72.1604V73.1604H252.903V72.1604H251.903ZM240.697 72.1604H239.697V73.1604H240.697V72.1604ZM240.697 69.376H241.697V68.376H240.697V69.376ZM237.895 69.376H236.895V70.376H237.895V69.376ZM237.895 66.5745H238.895V65.5745H237.895V66.5745ZM235.111 66.5745H234.111V67.5745H235.111V66.5745ZM235.111 60.9715V59.9715H234.111V60.9715H235.111ZM237.895 60.9715V61.9715H238.895V60.9715H237.895ZM237.895 58.1699V57.1699H236.895V58.1699H237.895ZM243.498 58.1699V59.1699H244.498V58.1699H243.498ZM243.498 55.3684V54.3684H242.498V55.3684H243.498ZM312.101 72.1604V73.1604H313.101V72.1604H312.101ZM292.508 72.1604H291.508V73.1604H292.508V72.1604ZM312.101 69.376H313.101V68.376H312.101V69.376ZM306.498 69.376H305.498V70.376H306.498V69.376ZM309.3 52.584V53.584H310.3V52.584H309.3ZM312.101 46.981V47.981H313.101V46.981H312.101ZM314.903 41.3779V42.3779H315.903V41.3779H314.903ZM317.704 35.792V36.792H318.704V35.792H317.704ZM317.704 30.189V29.189H316.704V30.189H317.704ZM323.29 30.189V31.189H324.29V30.189H323.29ZM323.29 27.3875H324.29V26.3875H323.29V27.3875ZM309.3 27.3875V26.3875H308.3V27.3875H309.3ZM309.3 30.189H308.3V31.189H309.3V30.189ZM314.903 30.189H315.903V29.189H314.903V30.189ZM312.101 35.792V34.792H311.101V35.792H312.101ZM309.3 41.3779V40.3779H308.3V41.3779H309.3ZM306.498 46.981V45.981H305.498V46.981H306.498ZM303.697 52.584H302.697V53.584H303.697V52.584ZM303.697 46.981H304.697V45.981H303.697V46.981ZM300.912 46.981H299.912V47.981H300.912V46.981ZM300.912 41.3779H301.912V40.3779H300.912V41.3779ZM298.111 41.3779H297.111V42.3779H298.111V41.3779ZM298.111 35.792H299.111V34.792H298.111V35.792ZM295.309 35.792H294.309V36.792H295.309V35.792ZM295.309 30.189V29.189H294.309V30.189H295.309ZM300.912 30.189V31.189H301.912V30.189H300.912ZM300.912 27.3875H301.912V26.3875H300.912V27.3875ZM281.336 27.3875V26.3875H280.336V27.3875H281.336ZM281.336 30.189H280.336V31.189H281.336V30.189ZM286.905 30.189H287.905V29.189H286.905V30.189ZM286.905 35.792H285.905V36.792H286.905V35.792ZM289.706 35.792H290.706V34.792H289.706V35.792ZM289.706 41.3779H288.706V42.3779H289.706V41.3779ZM292.508 41.3779H293.508V40.3779H292.508V41.3779ZM292.508 46.981H291.508V47.981H292.508V46.981ZM295.309 46.981H296.309V45.981H295.309V46.981ZM295.309 52.584H294.309V53.584H295.309V52.584ZM298.111 52.584H299.111V51.584H298.111V52.584ZM298.111 69.376V70.376H299.111V69.376H298.111ZM292.508 69.376V68.376H291.508V69.376H292.508ZM326.04 72.1604H325.04V73.1604H326.04V72.1604ZM342.832 72.1604V73.1604H343.832V72.1604H342.832ZM326.04 69.376H327.04V68.376H326.04V69.376ZM323.239 69.376H322.239V70.376H323.239V69.376ZM323.239 66.5745H324.239V65.5745H323.239V66.5745ZM320.437 66.5745H319.437V67.5745H320.437V66.5745ZM320.437 60.9715H321.437V59.9715H320.437V60.9715ZM317.653 60.9715H316.653V61.9715H317.653V60.9715ZM317.653 52.584V51.584H316.653V52.584H317.653ZM320.437 52.584V53.584H321.437V52.584H320.437ZM320.437 46.981V45.981H319.437V46.981H320.437ZM323.239 46.981V47.981H324.239V46.981H323.239ZM323.239 44.1795V43.1795H322.239V44.1795H323.239ZM326.04 44.1795V45.1795H327.04V44.1795H326.04ZM326.04 41.3779V40.3779H325.04V41.3779H326.04ZM342.832 41.3779H343.832V40.3779H342.832V41.3779ZM342.832 44.1795H341.832V45.1795H342.832V44.1795ZM345.634 44.1795H346.634V43.1795H345.634V44.1795ZM345.634 46.981H344.634V47.981H345.634V46.981ZM348.435 46.981H349.435V45.981H348.435V46.981ZM348.435 52.584V53.584H349.435V52.584H348.435ZM326.04 52.584V51.584H325.04V52.584H326.04ZM326.04 60.9715H325.04V61.9715H326.04V60.9715ZM328.842 60.9715H329.842V59.9715H328.842V60.9715ZM328.842 66.5745H327.842V67.5745H328.842V66.5745ZM331.643 66.5745H332.643V65.5745H331.643V66.5745ZM331.643 69.376H330.643V70.376H331.643V69.376ZM345.634 69.376V70.376H346.634V69.376H345.634ZM342.832 66.5745V65.5745H341.832V66.5745H342.832ZM345.634 63.773V62.773H344.634V63.773H345.634ZM348.435 63.773H349.435V62.773H348.435V63.773ZM348.435 66.5745V67.5745H349.435V66.5745H348.435ZM340.031 49.7825V50.7825H341.031V49.7825H340.031ZM326.04 49.7825H325.04V50.7825H326.04V49.7825ZM340.031 46.981H341.031V45.981H340.031V46.981ZM337.229 46.981H336.229V47.981H337.229V46.981ZM337.229 44.1795H338.229V43.1795H337.229V44.1795ZM328.842 44.1795V43.1795H327.842V44.1795H328.842ZM328.842 46.981V47.981H329.842V46.981H328.842ZM326.04 46.981V45.981H325.04V46.981H326.04ZM365.262 72.1604V73.1604H366.262V72.1604H365.262ZM351.271 72.1604H350.271V73.1604H351.271V72.1604ZM365.262 69.376H366.262V68.376H365.262V69.376ZM362.46 69.376H361.46V70.376H362.46V69.376ZM362.46 46.981V45.981H361.46V46.981H362.46ZM365.262 46.981V47.981H366.262V46.981H365.262ZM372.248 44.1795H373.248V43.1795H372.248V44.1795ZM372.248 46.981H371.248V47.981H372.248V46.981ZM375.05 46.981H376.05V45.981H375.05V46.981ZM375.05 69.376V70.376H376.05V69.376H375.05ZM372.248 69.376V68.376H371.248V69.376H372.248ZM372.248 72.1604H371.248V73.1604H372.248V72.1604ZM386.256 72.1604V73.1604H387.256V72.1604H386.256ZM386.256 69.376H387.256V68.376H386.256V69.376ZM383.454 69.376H382.454V70.376H383.454V69.376ZM383.454 46.981H384.454V45.981H383.454V46.981ZM380.653 46.981H379.653V47.981H380.653V46.981ZM380.653 44.1795H381.653V43.1795H380.653V44.1795ZM377.851 44.1795H376.851V45.1795H377.851V44.1795ZM377.851 41.3779H378.851V40.3779H377.851V41.3779ZM365.262 41.3779V40.3779H364.262V41.3779H365.262ZM362.46 44.1795H361.46V45.1795H362.46V44.1795ZM362.46 19H363.46V18H362.46V19ZM359.659 19V18H358.659V19H359.659ZM359.659 21.7844V22.7844H360.659V21.7844H359.659ZM356.857 21.7844V20.7844H355.857V21.7844H356.857ZM356.857 24.5859V25.5859H357.857V24.5859H356.857ZM354.056 24.5859V23.5859H353.056V24.5859H354.056ZM354.056 27.3875V28.3875H355.056V27.3875H354.056ZM351.271 27.3875V26.3875H350.271V27.3875H351.271ZM351.271 30.189H350.271V31.189H351.271V30.189ZM354.056 30.189H355.056V29.189H354.056V30.189ZM354.056 69.376V70.376H355.056V69.376H354.056ZM351.271 69.376V68.376H350.271V69.376H351.271ZM0 1H408V-1H0V1ZM1 96V0H-1V96H1ZM408 95H0V97H408V95ZM407 0V96H409V0H407ZM220.702 72.1604V69.376H218.702V72.1604H220.702ZM230.909 71.1604H219.702V73.1604H230.909V71.1604ZM229.909 69.376V72.1604H231.909V69.376H229.909ZM228.107 70.376H230.909V68.376H228.107V70.376ZM227.107 19V69.376H229.107V19H227.107ZM225.306 20H228.107V18H225.306V20ZM226.306 21.7844V19H224.306V21.7844H226.306ZM222.504 22.7844H225.306V20.7844H222.504V22.7844ZM223.504 24.5859V21.7844H221.504V24.5859H223.504ZM219.702 25.5859H222.504V23.5859H219.702V25.5859ZM220.702 27.3875V24.5859H218.702V27.3875H220.702ZM216.901 28.3875H219.702V26.3875H216.901V28.3875ZM217.901 30.189V27.3875H215.901V30.189H217.901ZM219.702 29.189H216.901V31.189H219.702V29.189ZM220.702 44.1795V30.189H218.702V44.1795H220.702ZM216.901 45.1795H219.702V43.1795H216.901V45.1795ZM215.901 41.3779V44.1795H217.901V41.3779H215.901ZM205.712 42.3779H216.901V40.3779H205.712V42.3779ZM206.712 44.1795V41.3779H204.712V44.1795H206.712ZM202.91 45.1795H205.712V43.1795H202.91V45.1795ZM203.91 46.981V44.1795H201.91V46.981H203.91ZM200.109 47.981H202.91V45.981H200.109V47.981ZM201.109 52.584V46.981H199.109V52.584H201.109ZM197.325 53.584H200.109V51.584H197.325V53.584ZM198.325 60.9715V52.584H196.325V60.9715H198.325ZM200.109 59.9715H197.325V61.9715H200.109V59.9715ZM201.109 66.5745V60.9715H199.109V66.5745H201.109ZM202.91 65.5745H200.109V67.5745H202.91V65.5745ZM203.91 69.376V66.5745H201.91V69.376H203.91ZM205.712 68.376H202.91V70.376H205.712V68.376ZM206.712 72.1604V69.376H204.712V72.1604H206.712ZM216.901 71.1604H205.712V73.1604H216.901V71.1604ZM215.901 69.376V72.1604H217.901V69.376H215.901ZM219.702 68.376H216.901V70.376H219.702V68.376ZM211.315 70.376H216.901V68.376H211.315V70.376ZM210.315 66.5745V69.376H212.315V66.5745H210.315ZM208.514 67.5745H211.315V65.5745H208.514V67.5745ZM207.514 60.9715V66.5745H209.514V60.9715H207.514ZM205.712 61.9715H208.514V59.9715H205.712V61.9715ZM204.712 52.584V60.9715H206.712V52.584H204.712ZM208.514 51.584H205.712V53.584H208.514V51.584ZM207.514 46.981V52.584H209.514V46.981H207.514ZM211.315 45.981H208.514V47.981H211.315V45.981ZM210.315 44.1795V46.981H212.315V44.1795H210.315ZM216.901 43.1795H211.315V45.1795H216.901V43.1795ZM217.901 46.981V44.1795H215.901V46.981H217.901ZM219.702 45.981H216.901V47.981H219.702V45.981ZM220.702 66.5745V46.981H218.702V66.5745H220.702ZM216.901 67.5745H219.702V65.5745H216.901V67.5745ZM217.901 69.376V66.5745H215.901V69.376H217.901ZM43.3609 73.1604H62.9544V71.1604H43.3609V73.1604ZM42.3609 69.376V72.1604H44.3609V69.376H42.3609ZM48.9639 68.376H43.3609V70.376H48.9639V68.376ZM47.9639 60.9715V69.376H49.9639V60.9715H47.9639ZM46.1624 61.9715H48.9639V59.9715H46.1624V61.9715ZM45.1624 58.1699V60.9715H47.1624V58.1699H45.1624ZM32.1719 59.1699H46.1624V57.1699H32.1719V59.1699ZM33.1719 60.9715V58.1699H31.1719V60.9715H33.1719ZM29.3704 61.9715H32.1719V59.9715H29.3704V61.9715ZM28.3704 52.584V60.9715H30.3704V52.584H28.3704ZM32.1719 51.584H29.3704V53.584H32.1719V51.584ZM33.1719 55.3684V52.584H31.1719V55.3684H33.1719ZM46.1624 54.3684H32.1719V56.3684H46.1624V54.3684ZM45.1624 52.584V55.3684H47.1624V52.584H45.1624ZM43.3609 53.584H46.1624V51.584H43.3609V53.584ZM42.3609 44.1795V52.584H44.3609V44.1795H42.3609ZM40.5764 45.1795H43.3609V43.1795H40.5764V45.1795ZM39.5764 35.792V44.1795H41.5764V35.792H39.5764ZM37.7749 36.792H40.5764V34.792H37.7749V36.792ZM36.7749 27.3875V35.792H38.7749V27.3875H36.7749ZM40.5764 26.3875H37.7749V28.3875H40.5764V26.3875ZM39.5764 24.5859V27.3875H41.5764V24.5859H39.5764ZM46.1624 23.5859H40.5764V25.5859H46.1624V23.5859ZM47.1624 35.792V24.5859H45.1624V35.792H47.1624ZM48.9639 34.792H46.1624V36.792H48.9639V34.792ZM49.9639 44.1795V35.792H47.9639V44.1795H49.9639ZM51.7654 43.1795H48.9639V45.1795H51.7654V43.1795ZM52.7654 52.584V44.1795H50.7654V52.584H52.7654ZM54.5669 51.584H51.7654V53.584H54.5669V51.584ZM55.5669 60.9715V52.584H53.5669V60.9715H55.5669ZM57.3684 59.9715H54.5669V61.9715H57.3684V59.9715ZM58.3684 69.376V60.9715H56.3684V69.376H58.3684ZM62.9544 68.376H57.3684V70.376H62.9544V68.376ZM63.9544 72.1604V69.376H61.9544V72.1604H63.9544ZM33.9734 35.792V44.1795H35.9734V35.792H33.9734ZM37.7749 34.792H34.9734V36.792H37.7749V34.792ZM38.7749 44.1795V35.792H36.7749V44.1795H38.7749ZM34.9734 45.1795H37.7749V43.1795H34.9734V45.1795ZM34.9734 43.1795H32.1719V45.1795H34.9734V43.1795ZM31.1719 44.1795V52.584H33.1719V44.1795H31.1719ZM32.1719 53.584H34.9734V51.584H32.1719V53.584ZM35.9734 52.584V44.1795H33.9734V52.584H35.9734ZM29.3704 59.9715H26.5689V61.9715H29.3704V59.9715ZM30.3704 69.376V60.9715H28.3704V69.376H30.3704ZM34.9734 68.376H29.3704V70.376H34.9734V68.376ZM35.9734 72.1604V69.376H33.9734V72.1604H35.9734ZM21 73.1604H34.9734V71.1604H21V73.1604ZM20 69.376V72.1604H22V69.376H20ZM26.5689 68.376H21V70.376H26.5689V68.376ZM25.5689 60.9715V69.376H27.5689V60.9715H25.5689ZM67.1566 73.1604H81.1471V71.1604H67.1566V73.1604ZM66.1566 69.376V72.1604H68.1566V69.376H66.1566ZM69.9411 68.376H67.1566V70.376H69.9411V68.376ZM68.9411 49.7825V69.376H70.9411V49.7825H68.9411ZM67.1566 50.7825H69.9411V48.7825H67.1566V50.7825ZM66.1566 46.981V49.7825H68.1566V46.981H66.1566ZM69.9411 45.981H67.1566V47.981H69.9411V45.981ZM68.9411 44.1795V46.981H70.9411V44.1795H68.9411ZM72.7426 43.1795H69.9411V45.1795H72.7426V43.1795ZM71.7426 41.3779V44.1795H73.7426V41.3779H71.7426ZM75.5441 40.3779H72.7426V42.3779H75.5441V40.3779ZM74.5441 38.5764V41.3779H76.5441V38.5764H74.5441ZM78.3456 37.5764H75.5441V39.5764H78.3456V37.5764ZM79.3456 44.1795V38.5764H77.3456V44.1795H79.3456ZM81.1471 43.1795H78.3456V45.1795H81.1471V43.1795ZM82.1471 46.981V44.1795H80.1471V46.981H82.1471ZM78.3456 47.981H81.1471V45.981H78.3456V47.981ZM79.3456 69.376V46.981H77.3456V69.376H79.3456ZM81.1471 68.376H78.3456V70.376H81.1471V68.376ZM82.1471 72.1604V69.376H80.1471V72.1604H82.1471ZM98.9391 69.376V46.981H96.9391V69.376H98.9391ZM100.741 68.376H97.9391V70.376H100.741V68.376ZM101.741 72.1604V69.376H99.7406V72.1604H101.741ZM86.7331 73.1604H100.741V71.1604H86.7331V73.1604ZM85.7331 69.376V72.1604H87.7331V69.376H85.7331ZM89.5346 68.376H86.7331V70.376H89.5346V68.376ZM88.5346 46.981V69.376H90.5346V46.981H88.5346ZM86.7331 47.981H89.5346V45.981H86.7331V47.981ZM85.7331 44.1795V46.981H87.7331V44.1795H85.7331ZM81.1471 45.1795H86.7331V43.1795H81.1471V45.1795ZM80.1471 41.3779V44.1795H82.1471V41.3779H80.1471ZM92.3361 40.3779H81.1471V42.3779H92.3361V40.3779ZM93.3361 44.1795V41.3779H91.3361V44.1795H93.3361ZM95.1376 43.1795H92.3361V45.1795H95.1376V43.1795ZM96.1376 46.981V44.1795H94.1376V46.981H96.1376ZM97.9391 45.981H95.1376V47.981H97.9391V45.981ZM101.741 46.981V44.1795H99.7406V46.981H101.741ZM97.9391 47.981H100.741V45.981H97.9391V47.981ZM96.9391 44.1795V46.981H98.9391V44.1795H96.9391ZM100.741 43.1795H97.9391V45.1795H100.741V43.1795ZM100.741 45.1795H106.327V43.1795H100.741V45.1795ZM105.327 44.1795V46.981H107.327V44.1795H105.327ZM106.327 47.981H109.128V45.981H106.327V47.981ZM108.128 46.981V69.376H110.128V46.981H108.128ZM109.128 68.376H106.327V70.376H109.128V68.376ZM105.327 69.376V72.1604H107.327V69.376H105.327ZM106.327 73.1604H120.317V71.1604H106.327V73.1604ZM121.317 72.1604V69.376H119.317V72.1604H121.317ZM120.317 68.376H117.533V70.376H120.317V68.376ZM118.533 69.376V46.981H116.533V69.376H118.533ZM117.533 45.981H114.731V47.981H117.533V45.981ZM115.731 46.981V44.1795H113.731V46.981H115.731ZM114.731 43.1795H111.93V45.1795H114.731V43.1795ZM112.93 44.1795V41.3779H110.93V44.1795H112.93ZM111.93 40.3779H100.741V42.3779H111.93V40.3779ZM99.7406 41.3779V44.1795H101.741V41.3779H99.7406ZM155.336 71.1604H146.931V73.1604H155.336V71.1604ZM154.336 69.376V72.1604H156.336V69.376H154.336ZM152.534 70.376H155.336V68.376H152.534V70.376ZM151.534 46.981V69.376H153.534V46.981H151.534ZM149.733 47.981H152.534V45.981H149.733V47.981ZM148.733 44.1795V46.981H150.733V44.1795H148.733ZM146.931 45.1795H149.733V43.1795H146.931V45.1795ZM145.931 41.3779V44.1795H147.931V41.3779H145.931ZM130.139 42.3779H146.931V40.3779H130.139V42.3779ZM131.139 44.1795V41.3779H129.139V44.1795H131.139ZM127.338 45.1795H130.139V43.1795H127.338V45.1795ZM128.338 46.981V44.1795H126.338V46.981H128.338ZM124.554 47.981H127.338V45.981H124.554V47.981ZM125.554 49.7825V46.981H123.554V49.7825H125.554ZM132.941 48.7825H124.554V50.7825H132.941V48.7825ZM131.941 46.981V49.7825H133.941V46.981H131.941ZM135.742 45.981H132.941V47.981H135.742V45.981ZM134.742 44.1795V46.981H136.742V44.1795H134.742ZM141.346 43.1795H135.742V45.1795H141.346V43.1795ZM142.346 46.981V44.1795H140.346V46.981H142.346ZM144.13 45.981H141.346V47.981H144.13V45.981ZM145.13 52.584V46.981H143.13V52.584H145.13ZM141.346 53.584H144.13V51.584H141.346V53.584ZM142.346 55.3684V52.584H140.346V55.3684H142.346ZM132.941 56.3684H141.346V54.3684H132.941V56.3684ZM133.941 58.1699V55.3684H131.941V58.1699H133.941ZM127.338 59.1699H132.941V57.1699H127.338V59.1699ZM128.338 60.9715V58.1699H126.338V60.9715H128.338ZM124.554 61.9715H127.338V59.9715H124.554V61.9715ZM125.554 66.5745V60.9715H123.554V66.5745H125.554ZM127.338 65.5745H124.554V67.5745H127.338V65.5745ZM128.338 69.376V66.5745H126.338V69.376H128.338ZM130.139 68.376H127.338V70.376H130.139V68.376ZM131.139 72.1604V69.376H129.139V72.1604H131.139ZM141.346 71.1604H130.139V73.1604H141.346V71.1604ZM140.346 69.376V72.1604H142.346V69.376H140.346ZM146.931 68.376H141.346V70.376H146.931V68.376ZM147.931 72.1604V69.376H145.931V72.1604H147.931ZM135.742 70.376H141.346V68.376H135.742V70.376ZM134.742 66.5745V69.376H136.742V66.5745H134.742ZM132.941 67.5745H135.742V65.5745H132.941V67.5745ZM131.941 60.9715V66.5745H133.941V60.9715H131.941ZM135.742 59.9715H132.941V61.9715H135.742V59.9715ZM134.742 58.1699V60.9715H136.742V58.1699H134.742ZM141.346 57.1699H135.742V59.1699H141.346V57.1699ZM140.346 55.3684V58.1699H142.346V55.3684H140.346ZM144.13 54.3684H141.346V56.3684H144.13V54.3684ZM145.13 66.5745V55.3684H143.13V66.5745H145.13ZM141.346 67.5745H144.13V65.5745H141.346V67.5745ZM142.346 69.376V66.5745H140.346V69.376H142.346ZM159.538 73.1604H173.529V71.1604H159.538V73.1604ZM158.538 69.376V72.1604H160.538V69.376H158.538ZM162.323 68.376H159.538V70.376H162.323V68.376ZM161.323 49.7825V69.376H163.323V49.7825H161.323ZM159.538 50.7825H162.323V48.7825H159.538V50.7825ZM158.538 46.981V49.7825H160.538V46.981H158.538ZM162.323 45.981H159.538V47.981H162.323V45.981ZM161.323 44.1795V46.981H163.323V44.1795H161.323ZM165.124 43.1795H162.323V45.1795H165.124V43.1795ZM164.124 41.3779V44.1795H166.124V41.3779H164.124ZM167.926 40.3779H165.124V42.3779H167.926V40.3779ZM166.926 38.5764V41.3779H168.926V38.5764H166.926ZM170.727 37.5764H167.926V39.5764H170.727V37.5764ZM171.727 44.1795V38.5764H169.727V44.1795H171.727ZM173.529 43.1795H170.727V45.1795H173.529V43.1795ZM174.529 46.981V44.1795H172.529V46.981H174.529ZM170.727 47.981H173.529V45.981H170.727V47.981ZM171.727 69.376V46.981H169.727V69.376H171.727ZM173.529 68.376H170.727V70.376H173.529V68.376ZM174.529 72.1604V69.376H172.529V72.1604H174.529ZM173.529 45.1795H180.515V43.1795H173.529V45.1795ZM172.529 41.3779V44.1795H174.529V41.3779H172.529ZM186.118 40.3779H173.529V42.3779H186.118V40.3779ZM187.118 44.1795V41.3779H185.118V44.1795H187.118ZM188.92 43.1795H186.118V45.1795H188.92V43.1795ZM189.92 46.981V44.1795H187.92V46.981H189.92ZM191.722 45.981H188.92V47.981H191.722V45.981ZM192.722 69.376V46.981H190.722V69.376H192.722ZM194.523 68.376H191.722V70.376H194.523V68.376ZM195.523 72.1604V69.376H193.523V72.1604H195.523ZM180.515 73.1604H194.523V71.1604H180.515V73.1604ZM179.515 69.376V72.1604H181.515V69.376H179.515ZM183.317 68.376H180.515V70.376H183.317V68.376ZM182.317 46.981V69.376H184.317V46.981H182.317ZM180.515 47.981H183.317V45.981H180.515V47.981ZM179.515 44.1795V46.981H181.515V44.1795H179.515ZM257.489 73.1604H265.893V71.1604H257.489V73.1604ZM256.489 69.376V72.1604H258.489V69.376H256.489ZM251.903 70.376H257.489V68.376H251.903V70.376ZM250.903 66.5745V69.376H252.903V66.5745H250.903ZM254.687 65.5745H251.903V67.5745H254.687V65.5745ZM253.687 55.3684V66.5745H255.687V55.3684H253.687ZM251.903 56.3684H254.687V54.3684H251.903V56.3684ZM250.903 52.584V55.3684H252.903V52.584H250.903ZM254.687 51.584H251.903V53.584H254.687V51.584ZM253.687 46.981V52.584H255.687V46.981H253.687ZM251.903 47.981H254.687V45.981H251.903V47.981ZM250.903 44.1795V46.981H252.903V44.1795H250.903ZM246.3 45.1795H251.903V43.1795H246.3V45.1795ZM247.3 46.981V44.1795H245.3V46.981H247.3ZM243.498 47.981H246.3V45.981H243.498V47.981ZM244.498 49.7825V46.981H242.498V49.7825H244.498ZM235.111 50.7825H243.498V48.7825H235.111V50.7825ZM234.111 46.981V49.7825H236.111V46.981H234.111ZM237.895 45.981H235.111V47.981H237.895V45.981ZM236.895 44.1795V46.981H238.895V44.1795H236.895ZM240.697 43.1795H237.895V45.1795H240.697V43.1795ZM239.697 41.3779V44.1795H241.697V41.3779H239.697ZM257.489 40.3779H240.697V42.3779H257.489V40.3779ZM258.489 44.1795V41.3779H256.489V44.1795H258.489ZM260.29 43.1795H257.489V45.1795H260.29V43.1795ZM261.29 46.981V44.1795H259.29V46.981H261.29ZM263.092 45.981H260.29V47.981H263.092V45.981ZM264.092 69.376V46.981H262.092V69.376H264.092ZM265.893 68.376H263.092V70.376H265.893V68.376ZM266.893 72.1604V69.376H264.893V72.1604H266.893ZM252.903 58.1699V55.3684H250.903V58.1699H252.903ZM246.3 59.1699H251.903V57.1699H246.3V59.1699ZM247.3 60.9715V58.1699H245.3V60.9715H247.3ZM243.498 61.9715H246.3V59.9715H243.498V61.9715ZM244.498 66.5745V60.9715H242.498V66.5745H244.498ZM246.3 65.5745H243.498V67.5745H246.3V65.5745ZM247.3 69.376V66.5745H245.3V69.376H247.3ZM251.903 68.376H246.3V70.376H251.903V68.376ZM252.903 72.1604V69.376H250.903V72.1604H252.903ZM240.697 73.1604H251.903V71.1604H240.697V73.1604ZM239.697 69.376V72.1604H241.697V69.376H239.697ZM237.895 70.376H240.697V68.376H237.895V70.376ZM236.895 66.5745V69.376H238.895V66.5745H236.895ZM235.111 67.5745H237.895V65.5745H235.111V67.5745ZM234.111 60.9715V66.5745H236.111V60.9715H234.111ZM237.895 59.9715H235.111V61.9715H237.895V59.9715ZM236.895 58.1699V60.9715H238.895V58.1699H236.895ZM243.498 57.1699H237.895V59.1699H243.498V57.1699ZM242.498 55.3684V58.1699H244.498V55.3684H242.498ZM251.903 54.3684H243.498V56.3684H251.903V54.3684ZM312.101 71.1604H292.508V73.1604H312.101V71.1604ZM311.101 69.376V72.1604H313.101V69.376H311.101ZM306.498 70.376H312.101V68.376H306.498V70.376ZM305.498 52.584V69.376H307.498V52.584H305.498ZM309.3 51.584H306.498V53.584H309.3V51.584ZM308.3 46.981V52.584H310.3V46.981H308.3ZM312.101 45.981H309.3V47.981H312.101V45.981ZM311.101 41.3779V46.981H313.101V41.3779H311.101ZM314.903 40.3779H312.101V42.3779H314.903V40.3779ZM313.903 35.792V41.3779H315.903V35.792H313.903ZM317.704 34.792H314.903V36.792H317.704V34.792ZM316.704 30.189V35.792H318.704V30.189H316.704ZM323.29 29.189H317.704V31.189H323.29V29.189ZM322.29 27.3875V30.189H324.29V27.3875H322.29ZM309.3 28.3875H323.29V26.3875H309.3V28.3875ZM310.3 30.189V27.3875H308.3V30.189H310.3ZM314.903 29.189H309.3V31.189H314.903V29.189ZM315.903 35.792V30.189H313.903V35.792H315.903ZM312.101 36.792H314.903V34.792H312.101V36.792ZM313.101 41.3779V35.792H311.101V41.3779H313.101ZM309.3 42.3779H312.101V40.3779H309.3V42.3779ZM310.3 46.981V41.3779H308.3V46.981H310.3ZM306.498 47.981H309.3V45.981H306.498V47.981ZM307.498 52.584V46.981H305.498V52.584H307.498ZM303.697 53.584H306.498V51.584H303.697V53.584ZM302.697 46.981V52.584H304.697V46.981H302.697ZM300.912 47.981H303.697V45.981H300.912V47.981ZM299.912 41.3779V46.981H301.912V41.3779H299.912ZM298.111 42.3779H300.912V40.3779H298.111V42.3779ZM297.111 35.792V41.3779H299.111V35.792H297.111ZM295.309 36.792H298.111V34.792H295.309V36.792ZM294.309 30.189V35.792H296.309V30.189H294.309ZM300.912 29.189H295.309V31.189H300.912V29.189ZM299.912 27.3875V30.189H301.912V27.3875H299.912ZM281.336 28.3875H300.912V26.3875H281.336V28.3875ZM282.336 30.189V27.3875H280.336V30.189H282.336ZM286.905 29.189H281.336V31.189H286.905V29.189ZM287.905 35.792V30.189H285.905V35.792H287.905ZM289.706 34.792H286.905V36.792H289.706V34.792ZM290.706 41.3779V35.792H288.706V41.3779H290.706ZM292.508 40.3779H289.706V42.3779H292.508V40.3779ZM293.508 46.981V41.3779H291.508V46.981H293.508ZM295.309 45.981H292.508V47.981H295.309V45.981ZM296.309 52.584V46.981H294.309V52.584H296.309ZM298.111 51.584H295.309V53.584H298.111V51.584ZM299.111 69.376V52.584H297.111V69.376H299.111ZM292.508 70.376H298.111V68.376H292.508V70.376ZM293.508 72.1604V69.376H291.508V72.1604H293.508ZM326.04 73.1604H342.832V71.1604H326.04V73.1604ZM325.04 69.376V72.1604H327.04V69.376H325.04ZM323.239 70.376H326.04V68.376H323.239V70.376ZM322.239 66.5745V69.376H324.239V66.5745H322.239ZM320.437 67.5745H323.239V65.5745H320.437V67.5745ZM319.437 60.9715V66.5745H321.437V60.9715H319.437ZM317.653 61.9715H320.437V59.9715H317.653V61.9715ZM316.653 52.584V60.9715H318.653V52.584H316.653ZM320.437 51.584H317.653V53.584H320.437V51.584ZM319.437 46.981V52.584H321.437V46.981H319.437ZM323.239 45.981H320.437V47.981H323.239V45.981ZM322.239 44.1795V46.981H324.239V44.1795H322.239ZM326.04 43.1795H323.239V45.1795H326.04V43.1795ZM325.04 41.3779V44.1795H327.04V41.3779H325.04ZM342.832 40.3779H326.04V42.3779H342.832V40.3779ZM343.832 44.1795V41.3779H341.832V44.1795H343.832ZM345.634 43.1795H342.832V45.1795H345.634V43.1795ZM346.634 46.981V44.1795H344.634V46.981H346.634ZM348.435 45.981H345.634V47.981H348.435V45.981ZM349.435 52.584V46.981H347.435V52.584H349.435ZM326.04 53.584H348.435V51.584H326.04V53.584ZM327.04 60.9715V52.584H325.04V60.9715H327.04ZM328.842 59.9715H326.04V61.9715H328.842V59.9715ZM329.842 66.5745V60.9715H327.842V66.5745H329.842ZM331.643 65.5745H328.842V67.5745H331.643V65.5745ZM332.643 69.376V66.5745H330.643V69.376H332.643ZM342.832 68.376H331.643V70.376H342.832V68.376ZM343.832 72.1604V69.376H341.832V72.1604H343.832ZM346.634 69.376V66.5745H344.634V69.376H346.634ZM342.832 70.376H345.634V68.376H342.832V70.376ZM341.832 66.5745V69.376H343.832V66.5745H341.832ZM345.634 65.5745H342.832V67.5745H345.634V65.5745ZM344.634 63.773V66.5745H346.634V63.773H344.634ZM348.435 62.773H345.634V64.773H348.435V62.773ZM349.435 66.5745V63.773H347.435V66.5745H349.435ZM345.634 67.5745H348.435V65.5745H345.634V67.5745ZM340.031 48.7825H326.04V50.7825H340.031V48.7825ZM339.031 46.981V49.7825H341.031V46.981H339.031ZM337.229 47.981H340.031V45.981H337.229V47.981ZM336.229 44.1795V46.981H338.229V44.1795H336.229ZM328.842 45.1795H337.229V43.1795H328.842V45.1795ZM329.842 46.981V44.1795H327.842V46.981H329.842ZM326.04 47.981H328.842V45.981H326.04V47.981ZM327.04 49.7825V46.981H325.04V49.7825H327.04ZM365.262 71.1604H351.271V73.1604H365.262V71.1604ZM364.262 69.376V72.1604H366.262V69.376H364.262ZM362.46 70.376H365.262V68.376H362.46V70.376ZM361.46 46.981V69.376H363.46V46.981H361.46ZM365.262 45.981H362.46V47.981H365.262V45.981ZM364.262 44.1795V46.981H366.262V44.1795H364.262ZM372.248 43.1795H365.262V45.1795H372.248V43.1795ZM373.248 46.981V44.1795H371.248V46.981H373.248ZM375.05 45.981H372.248V47.981H375.05V45.981ZM376.05 69.376V46.981H374.05V69.376H376.05ZM372.248 70.376H375.05V68.376H372.248V70.376ZM373.248 72.1604V69.376H371.248V72.1604H373.248ZM386.256 71.1604H372.248V73.1604H386.256V71.1604ZM385.256 69.376V72.1604H387.256V69.376H385.256ZM383.454 70.376H386.256V68.376H383.454V70.376ZM382.454 46.981V69.376H384.454V46.981H382.454ZM380.653 47.981H383.454V45.981H380.653V47.981ZM379.653 44.1795V46.981H381.653V44.1795H379.653ZM377.851 45.1795H380.653V43.1795H377.851V45.1795ZM376.851 41.3779V44.1795H378.851V41.3779H376.851ZM365.262 42.3779H377.851V40.3779H365.262V42.3779ZM366.262 44.1795V41.3779H364.262V44.1795H366.262ZM362.46 45.1795H365.262V43.1795H362.46V45.1795ZM361.46 19V44.1795H363.46V19H361.46ZM359.659 20H362.46V18H359.659V20ZM360.659 21.7844V19H358.659V21.7844H360.659ZM356.857 22.7844H359.659V20.7844H356.857V22.7844ZM357.857 24.5859V21.7844H355.857V24.5859H357.857ZM354.056 25.5859H356.857V23.5859H354.056V25.5859ZM355.056 27.3875V24.5859H353.056V27.3875H355.056ZM351.271 28.3875H354.056V26.3875H351.271V28.3875ZM352.271 30.189V27.3875H350.271V30.189H352.271ZM354.056 29.189H351.271V31.189H354.056V29.189ZM355.056 69.376V30.189H353.056V69.376H355.056ZM351.271 70.376H354.056V68.376H351.271V70.376ZM352.271 72.1604V69.376H350.271V72.1604H352.271Z" fill="black" mask="url(#path-1-inside-1)"/>
</svg>
