<svg width="164" height="39" viewBox="0 0 164 39" fill="none" xmlns="http://www.w3.org/2000/svg">
<mask id="path-1-inside-1" fill="white">
<path fillRule="evenodd" clipRule="evenodd" d="M164 0H0V38.5882H164V0ZM88.3118 27.8864V29.0056H92.8162V27.8864H91.6901V7.63719H90.564V8.75643H89.4379V9.88253H88.3118V11.0086H87.1857V12.1347H88.3118V17.7584H87.1857V16.6323H82.6882V17.7584H81.5621V18.8844H80.436V21.1366H79.3167V24.5081H80.436V26.7603H81.5621V27.8864H82.6882V29.0056H87.1857V27.8864H88.3118ZM87.1857 27.8864H84.9404V26.7603H83.8143V24.5081H82.6882V21.1366H83.8143V18.8844H84.9404V17.7584H87.1857V18.8844H88.3118V26.7603H87.1857V27.8864ZM25.3052 29.0056H17.4294V27.8864H19.6816V24.5081H18.5555V23.382H12.9318V24.5081H11.8057V21.1366H12.9318V22.2559H18.5555V21.1366H17.4294V17.7584H16.3101V14.3869H15.184V11.0086H16.3101V9.88253H18.5555V14.3869H19.6816V17.7584H20.8077V21.1366H21.9338V24.5081H23.0599V27.8864H25.3052V29.0056ZM14.0579 17.7584V14.3869H15.184V17.7584H14.0579ZM14.0579 17.7584H12.9318V21.1366H14.0579V17.7584ZM10.6796 24.5081H11.8057V27.8864H14.0579V29.0056H8.44118V27.8864H10.6796V24.5081ZM32.618 29.0056H26.9943V27.8864H28.1136V20.0105H26.9943V18.8844H28.1136V17.7584H29.2397V16.6323H30.3658V15.5062H31.4919V17.7584H32.618V18.8844H31.4919V27.8864H32.618V29.0056ZM39.3677 18.8844V27.8864H40.4938V29.0056H34.8633V27.8864H35.9894V18.8844H34.8633V17.7584H32.618V16.6323H37.1155V17.7584H38.2416V18.8844H39.3677ZM40.4938 17.7584V18.8844H39.3677V17.7584H40.4938ZM40.4938 17.7584H42.7391V18.8844H43.8652V27.8864H42.7391V29.0056H48.3628V27.8864H47.2435V18.8844H46.1174V17.7584H44.9913V16.6323H40.4938V17.7584ZM59.0607 29.0056H62.439V27.8864H61.3129V18.8844H60.1868V17.7584H59.0607V16.6323H52.311V17.7584H51.1849V18.8844H50.0656V20.0105H53.4371V18.8844H54.5632V17.7584H56.8154V18.8844H57.9346V21.1366H56.8154V22.2559H53.4371V23.382H51.1849V24.5081H50.0656V26.7603H51.1849V27.8864H52.311V29.0056H56.8154V27.8864H59.0607V29.0056ZM56.8154 27.8864H54.5632V26.7603H53.4371V24.5081H54.5632V23.382H56.8154V22.2559H57.9346V26.7603H56.8154V27.8864ZM69.7518 29.0056H64.1281V27.8864H65.2474V20.0105H64.1281V18.8844H65.2474V17.7584H66.3735V16.6323H67.4996V15.5062H68.6257V17.7584H69.7518V18.8844H68.6257V27.8864H69.7518V29.0056ZM72.5601 17.7584H69.7518V16.6323H74.8123V17.7584H75.9384V18.8844H77.0645V27.8864H78.1906V29.0056H72.5601V27.8864H73.6862V18.8844H72.5601V17.7584ZM106.879 29.0056H103.5V27.8864H101.255V26.7603H102.374V22.2559H101.255V21.1366H102.374V18.8844H101.255V17.7584H99.0029V18.8844H97.8768V20.0105H94.5053V18.8844H95.6246V17.7584H96.7507V16.6323H103.5V17.7584H104.626V18.8844H105.753V27.8864H106.879V29.0056ZM101.255 22.2559V23.382H99.0029V24.5081H97.8768V26.7603H99.0029V27.8864H101.255V29.0056H96.7507V27.8864H95.6246V26.7603H94.5053V24.5081H95.6246V23.382H97.8768V22.2559H101.255ZM117.577 29.0056H125.452V27.8864H123.2V21.1366H124.326V18.8844H125.452V16.6323H126.579V14.3869H127.705V12.1347H129.95V11.0086H124.326V12.1347H126.579V14.3869H125.452V16.6323H124.326V18.8844H123.2V21.1366H122.074V18.8844H120.955V16.6323H119.829V14.3869H118.703V12.1347H120.955V11.0086H113.086V12.1347H115.324V14.3869H116.451V16.6323H117.577V18.8844H118.703V21.1366H119.829V27.8864H117.577V29.0056ZM137.805 29.0056H131.055V27.8864H129.929V26.7603H128.803V24.5081H127.684V21.1366H128.803V18.8844H129.929V17.7584H131.055V16.6323H137.805V17.7584H138.931V18.8844H140.057V21.1366H131.055V24.5081H132.182V26.7603H133.308V27.8864H137.805V29.0056ZM138.931 26.7603V27.8864H137.805V26.7603H138.931ZM138.931 26.7603V25.6342H140.057V26.7603H138.931ZM131.055 20.0105H136.679V18.8844H135.553V17.7584H132.182V18.8844H131.055V20.0105ZM141.197 29.0056H146.821V27.8864H145.695V18.8844H146.821V17.7584H149.629V18.8844H150.755V27.8864H149.629V29.0056H155.26V27.8864H154.134V18.8844H153.008V17.7584H151.881V16.6323H146.821V17.7584H145.695V7.63719H144.569V8.75643H143.443V9.88253H142.316V11.0086H141.197V12.1347H142.316V27.8864H141.197V29.0056Z"/>
</mask>
<path fillRule="evenodd" clipRule="evenodd" d="M164 0H0V38.5882H164V0ZM88.3118 27.8864V29.0056H92.8162V27.8864H91.6901V7.63719H90.564V8.75643H89.4379V9.88253H88.3118V11.0086H87.1857V12.1347H88.3118V17.7584H87.1857V16.6323H82.6882V17.7584H81.5621V18.8844H80.436V21.1366H79.3167V24.5081H80.436V26.7603H81.5621V27.8864H82.6882V29.0056H87.1857V27.8864H88.3118ZM87.1857 27.8864H84.9404V26.7603H83.8143V24.5081H82.6882V21.1366H83.8143V18.8844H84.9404V17.7584H87.1857V18.8844H88.3118V26.7603H87.1857V27.8864ZM25.3052 29.0056H17.4294V27.8864H19.6816V24.5081H18.5555V23.382H12.9318V24.5081H11.8057V21.1366H12.9318V22.2559H18.5555V21.1366H17.4294V17.7584H16.3101V14.3869H15.184V11.0086H16.3101V9.88253H18.5555V14.3869H19.6816V17.7584H20.8077V21.1366H21.9338V24.5081H23.0599V27.8864H25.3052V29.0056ZM14.0579 17.7584V14.3869H15.184V17.7584H14.0579ZM14.0579 17.7584H12.9318V21.1366H14.0579V17.7584ZM10.6796 24.5081H11.8057V27.8864H14.0579V29.0056H8.44118V27.8864H10.6796V24.5081ZM32.618 29.0056H26.9943V27.8864H28.1136V20.0105H26.9943V18.8844H28.1136V17.7584H29.2397V16.6323H30.3658V15.5062H31.4919V17.7584H32.618V18.8844H31.4919V27.8864H32.618V29.0056ZM39.3677 18.8844V27.8864H40.4938V29.0056H34.8633V27.8864H35.9894V18.8844H34.8633V17.7584H32.618V16.6323H37.1155V17.7584H38.2416V18.8844H39.3677ZM40.4938 17.7584V18.8844H39.3677V17.7584H40.4938ZM40.4938 17.7584H42.7391V18.8844H43.8652V27.8864H42.7391V29.0056H48.3628V27.8864H47.2435V18.8844H46.1174V17.7584H44.9913V16.6323H40.4938V17.7584ZM59.0607 29.0056H62.439V27.8864H61.3129V18.8844H60.1868V17.7584H59.0607V16.6323H52.311V17.7584H51.1849V18.8844H50.0656V20.0105H53.4371V18.8844H54.5632V17.7584H56.8154V18.8844H57.9346V21.1366H56.8154V22.2559H53.4371V23.382H51.1849V24.5081H50.0656V26.7603H51.1849V27.8864H52.311V29.0056H56.8154V27.8864H59.0607V29.0056ZM56.8154 27.8864H54.5632V26.7603H53.4371V24.5081H54.5632V23.382H56.8154V22.2559H57.9346V26.7603H56.8154V27.8864ZM69.7518 29.0056H64.1281V27.8864H65.2474V20.0105H64.1281V18.8844H65.2474V17.7584H66.3735V16.6323H67.4996V15.5062H68.6257V17.7584H69.7518V18.8844H68.6257V27.8864H69.7518V29.0056ZM72.5601 17.7584H69.7518V16.6323H74.8123V17.7584H75.9384V18.8844H77.0645V27.8864H78.1906V29.0056H72.5601V27.8864H73.6862V18.8844H72.5601V17.7584ZM106.879 29.0056H103.5V27.8864H101.255V26.7603H102.374V22.2559H101.255V21.1366H102.374V18.8844H101.255V17.7584H99.0029V18.8844H97.8768V20.0105H94.5053V18.8844H95.6246V17.7584H96.7507V16.6323H103.5V17.7584H104.626V18.8844H105.753V27.8864H106.879V29.0056ZM101.255 22.2559V23.382H99.0029V24.5081H97.8768V26.7603H99.0029V27.8864H101.255V29.0056H96.7507V27.8864H95.6246V26.7603H94.5053V24.5081H95.6246V23.382H97.8768V22.2559H101.255ZM117.577 29.0056H125.452V27.8864H123.2V21.1366H124.326V18.8844H125.452V16.6323H126.579V14.3869H127.705V12.1347H129.95V11.0086H124.326V12.1347H126.579V14.3869H125.452V16.6323H124.326V18.8844H123.2V21.1366H122.074V18.8844H120.955V16.6323H119.829V14.3869H118.703V12.1347H120.955V11.0086H113.086V12.1347H115.324V14.3869H116.451V16.6323H117.577V18.8844H118.703V21.1366H119.829V27.8864H117.577V29.0056ZM137.805 29.0056H131.055V27.8864H129.929V26.7603H128.803V24.5081H127.684V21.1366H128.803V18.8844H129.929V17.7584H131.055V16.6323H137.805V17.7584H138.931V18.8844H140.057V21.1366H131.055V24.5081H132.182V26.7603H133.308V27.8864H137.805V29.0056ZM138.931 26.7603V27.8864H137.805V26.7603H138.931ZM138.931 26.7603V25.6342H140.057V26.7603H138.931ZM131.055 20.0105H136.679V18.8844H135.553V17.7584H132.182V18.8844H131.055V20.0105ZM141.197 29.0056H146.821V27.8864H145.695V18.8844H146.821V17.7584H149.629V18.8844H150.755V27.8864H149.629V29.0056H155.26V27.8864H154.134V18.8844H153.008V17.7584H151.881V16.6323H146.821V17.7584H145.695V7.63719H144.569V8.75643H143.443V9.88253H142.316V11.0086H141.197V12.1347H142.316V27.8864H141.197V29.0056Z" fill="white"/>
<path d="M0 0V-1H-1V0H0ZM164 0H165V-1H164V0ZM0 38.5882H-1V39.5882H0V38.5882ZM164 38.5882V39.5882H165V38.5882H164ZM88.3118 29.0056H87.3118V30.0056H88.3118V29.0056ZM88.3118 27.8864H89.3118V26.8864H88.3118V27.8864ZM92.8162 29.0056V30.0056H93.8162V29.0056H92.8162ZM92.8162 27.8864H93.8162V26.8864H92.8162V27.8864ZM91.6901 27.8864H90.6901V28.8864H91.6901V27.8864ZM91.6901 7.63719H92.6901V6.63719H91.6901V7.63719ZM90.564 7.63719V6.63719H89.564V7.63719H90.564ZM90.564 8.75643V9.75643H91.564V8.75643H90.564ZM89.4379 8.75643V7.75643H88.4379V8.75643H89.4379ZM89.4379 9.88253V10.8825H90.4379V9.88253H89.4379ZM88.3118 9.88253V8.88253H87.3118V9.88253H88.3118ZM88.3118 11.0086V12.0086H89.3118V11.0086H88.3118ZM87.1857 11.0086V10.0086H86.1857V11.0086H87.1857ZM87.1857 12.1347H86.1857V13.1347H87.1857V12.1347ZM88.3118 12.1347H89.3118V11.1347H88.3118V12.1347ZM88.3118 17.7584V18.7584H89.3118V17.7584H88.3118ZM87.1857 16.6323H88.1857V15.6323H87.1857V16.6323ZM82.6882 16.6323V15.6323H81.6882V16.6323H82.6882ZM82.6882 17.7584V18.7584H83.6882V17.7584H82.6882ZM81.5621 17.7584V16.7584H80.5621V17.7584H81.5621ZM81.5621 18.8844V19.8844H82.5621V18.8844H81.5621ZM80.436 18.8844V17.8844H79.436V18.8844H80.436ZM80.436 21.1366V22.1366H81.436V21.1366H80.436ZM79.3167 21.1366V20.1366H78.3167V21.1366H79.3167ZM79.3167 24.5081H78.3167V25.5081H79.3167V24.5081ZM80.436 24.5081H81.436V23.5081H80.436V24.5081ZM80.436 26.7603H79.436V27.7603H80.436V26.7603ZM81.5621 26.7603H82.5621V25.7603H81.5621V26.7603ZM81.5621 27.8864H80.5621V28.8864H81.5621V27.8864ZM82.6882 27.8864H83.6882V26.8864H82.6882V27.8864ZM82.6882 29.0056H81.6882V30.0056H82.6882V29.0056ZM87.1857 29.0056V30.0056H88.1857V29.0056H87.1857ZM84.9404 27.8864H83.9404V28.8864H84.9404V27.8864ZM84.9404 26.7603H85.9404V25.7603H84.9404V26.7603ZM83.8143 26.7603H82.8143V27.7603H83.8143V26.7603ZM83.8143 24.5081H84.8143V23.5081H83.8143V24.5081ZM82.6882 24.5081H81.6882V25.5081H82.6882V24.5081ZM82.6882 21.1366V20.1366H81.6882V21.1366H82.6882ZM83.8143 21.1366V22.1366H84.8143V21.1366H83.8143ZM83.8143 18.8844V17.8844H82.8143V18.8844H83.8143ZM84.9404 18.8844V19.8844H85.9404V18.8844H84.9404ZM84.9404 17.7584V16.7584H83.9404V17.7584H84.9404ZM87.1857 18.8844H86.1857V19.8844H87.1857V18.8844ZM88.3118 18.8844H89.3118V17.8844H88.3118V18.8844ZM88.3118 26.7603V27.7603H89.3118V26.7603H88.3118ZM87.1857 26.7603V25.7603H86.1857V26.7603H87.1857ZM17.4294 29.0056H16.4294V30.0056H17.4294V29.0056ZM25.3052 29.0056V30.0056H26.3052V29.0056H25.3052ZM17.4294 27.8864V26.8864H16.4294V27.8864H17.4294ZM19.6816 27.8864V28.8864H20.6816V27.8864H19.6816ZM19.6816 24.5081H20.6816V23.5081H19.6816V24.5081ZM18.5555 24.5081H17.5555V25.5081H18.5555V24.5081ZM18.5555 23.382H19.5555V22.382H18.5555V23.382ZM12.9318 23.382V22.382H11.9318V23.382H12.9318ZM12.9318 24.5081V25.5081H13.9318V24.5081H12.9318ZM11.8057 21.1366V20.1366H10.8057V21.1366H11.8057ZM12.9318 22.2559H11.9318V23.2559H12.9318V22.2559ZM18.5555 22.2559V23.2559H19.5555V22.2559H18.5555ZM18.5555 21.1366H19.5555V20.1366H18.5555V21.1366ZM17.4294 21.1366H16.4294V22.1366H17.4294V21.1366ZM17.4294 17.7584H18.4294V16.7584H17.4294V17.7584ZM16.3101 17.7584H15.3101V18.7584H16.3101V17.7584ZM16.3101 14.3869H17.3101V13.3869H16.3101V14.3869ZM15.184 11.0086V10.0086H14.184V11.0086H15.184ZM16.3101 11.0086V12.0086H17.3101V11.0086H16.3101ZM16.3101 9.88253V8.88253H15.3101V9.88253H16.3101ZM18.5555 9.88253H19.5555V8.88253H18.5555V9.88253ZM18.5555 14.3869H17.5555V15.3869H18.5555V14.3869ZM19.6816 14.3869H20.6816V13.3869H19.6816V14.3869ZM19.6816 17.7584H18.6816V18.7584H19.6816V17.7584ZM20.8077 17.7584H21.8077V16.7584H20.8077V17.7584ZM20.8077 21.1366H19.8077V22.1366H20.8077V21.1366ZM21.9338 21.1366H22.9338V20.1366H21.9338V21.1366ZM21.9338 24.5081H20.9338V25.5081H21.9338V24.5081ZM23.0599 24.5081H24.0599V23.5081H23.0599V24.5081ZM23.0599 27.8864H22.0599V28.8864H23.0599V27.8864ZM25.3052 27.8864H26.3052V26.8864H25.3052V27.8864ZM14.0579 14.3869V13.3869H13.0579V14.3869H14.0579ZM15.184 17.7584V18.7584H16.184V17.7584H15.184ZM12.9318 17.7584V16.7584H11.9318V17.7584H12.9318ZM14.0579 21.1366V22.1366H15.0579V21.1366H14.0579ZM10.6796 24.5081V23.5081H9.67965V24.5081H10.6796ZM11.8057 27.8864H10.8057V28.8864H11.8057V27.8864ZM14.0579 27.8864H15.0579V26.8864H14.0579V27.8864ZM14.0579 29.0056V30.0056H15.0579V29.0056H14.0579ZM8.44118 29.0056H7.44118V30.0056H8.44118V29.0056ZM8.44118 27.8864V26.8864H7.44118V27.8864H8.44118ZM10.6796 27.8864V28.8864H11.6796V27.8864H10.6796ZM26.9943 29.0056H25.9943V30.0056H26.9943V29.0056ZM32.618 29.0056V30.0056H33.618V29.0056H32.618ZM26.9943 27.8864V26.8864H25.9943V27.8864H26.9943ZM28.1136 27.8864V28.8864H29.1136V27.8864H28.1136ZM28.1136 20.0105H29.1136V19.0105H28.1136V20.0105ZM26.9943 20.0105H25.9943V21.0105H26.9943V20.0105ZM26.9943 18.8844V17.8844H25.9943V18.8844H26.9943ZM28.1136 18.8844V19.8844H29.1136V18.8844H28.1136ZM28.1136 17.7584V16.7584H27.1136V17.7584H28.1136ZM29.2397 17.7584V18.7584H30.2397V17.7584H29.2397ZM29.2397 16.6323V15.6323H28.2397V16.6323H29.2397ZM30.3658 16.6323V17.6323H31.3658V16.6323H30.3658ZM30.3658 15.5062V14.5062H29.3658V15.5062H30.3658ZM31.4919 15.5062H32.4919V14.5062H31.4919V15.5062ZM31.4919 17.7584H30.4919V18.7584H31.4919V17.7584ZM32.618 18.8844V19.8844H33.618V18.8844H32.618ZM31.4919 18.8844V17.8844H30.4919V18.8844H31.4919ZM31.4919 27.8864H30.4919V28.8864H31.4919V27.8864ZM32.618 27.8864H33.618V26.8864H32.618V27.8864ZM39.3677 27.8864H38.3677V28.8864H39.3677V27.8864ZM40.4938 27.8864H41.4938V26.8864H40.4938V27.8864ZM40.4938 29.0056V30.0056H41.4938V29.0056H40.4938ZM34.8633 29.0056H33.8633V30.0056H34.8633V29.0056ZM34.8633 27.8864V26.8864H33.8633V27.8864H34.8633ZM35.9894 27.8864V28.8864H36.9894V27.8864H35.9894ZM35.9894 18.8844H36.9894V17.8844H35.9894V18.8844ZM34.8633 18.8844H33.8633V19.8844H34.8633V18.8844ZM34.8633 17.7584H35.8633V16.7584H34.8633V17.7584ZM32.618 16.6323V15.6323H31.618V16.6323H32.618ZM37.1155 16.6323H38.1155V15.6323H37.1155V16.6323ZM37.1155 17.7584H36.1155V18.7584H37.1155V17.7584ZM38.2416 17.7584H39.2416V16.7584H38.2416V17.7584ZM38.2416 18.8844H37.2416V19.8844H38.2416V18.8844ZM40.4938 18.8844V19.8844H41.4938V18.8844H40.4938ZM39.3677 17.7584V16.7584H38.3677V17.7584H39.3677ZM42.7391 17.7584H43.7391V16.7584H42.7391V17.7584ZM42.7391 18.8844H41.7391V19.8844H42.7391V18.8844ZM43.8652 18.8844H44.8652V17.8844H43.8652V18.8844ZM43.8652 27.8864V28.8864H44.8652V27.8864H43.8652ZM42.7391 27.8864V26.8864H41.7391V27.8864H42.7391ZM42.7391 29.0056H41.7391V30.0056H42.7391V29.0056ZM48.3628 29.0056V30.0056H49.3628V29.0056H48.3628ZM48.3628 27.8864H49.3628V26.8864H48.3628V27.8864ZM47.2435 27.8864H46.2435V28.8864H47.2435V27.8864ZM47.2435 18.8844H48.2435V17.8844H47.2435V18.8844ZM46.1174 18.8844H45.1174V19.8844H46.1174V18.8844ZM46.1174 17.7584H47.1174V16.7584H46.1174V17.7584ZM44.9913 17.7584H43.9913V18.7584H44.9913V17.7584ZM44.9913 16.6323H45.9913V15.6323H44.9913V16.6323ZM40.4938 16.6323V15.6323H39.4938V16.6323H40.4938ZM62.439 29.0056V30.0056H63.439V29.0056H62.439ZM59.0607 29.0056H58.0607V30.0056H59.0607V29.0056ZM62.439 27.8864H63.439V26.8864H62.439V27.8864ZM61.3129 27.8864H60.3129V28.8864H61.3129V27.8864ZM61.3129 18.8844H62.3129V17.8844H61.3129V18.8844ZM60.1868 18.8844H59.1868V19.8844H60.1868V18.8844ZM60.1868 17.7584H61.1868V16.7584H60.1868V17.7584ZM59.0607 17.7584H58.0607V18.7584H59.0607V17.7584ZM59.0607 16.6323H60.0607V15.6323H59.0607V16.6323ZM52.311 16.6323V15.6323H51.311V16.6323H52.311ZM52.311 17.7584V18.7584H53.311V17.7584H52.311ZM51.1849 17.7584V16.7584H50.1849V17.7584H51.1849ZM51.1849 18.8844V19.8844H52.1849V18.8844H51.1849ZM50.0656 18.8844V17.8844H49.0656V18.8844H50.0656ZM50.0656 20.0105H49.0656V21.0105H50.0656V20.0105ZM53.4371 20.0105V21.0105H54.4371V20.0105H53.4371ZM53.4371 18.8844V17.8844H52.4371V18.8844H53.4371ZM54.5632 18.8844V19.8844H55.5632V18.8844H54.5632ZM54.5632 17.7584V16.7584H53.5632V17.7584H54.5632ZM56.8154 17.7584H57.8154V16.7584H56.8154V17.7584ZM56.8154 18.8844H55.8154V19.8844H56.8154V18.8844ZM57.9346 18.8844H58.9346V17.8844H57.9346V18.8844ZM57.9346 21.1366V22.1366H58.9346V21.1366H57.9346ZM56.8154 21.1366V20.1366H55.8154V21.1366H56.8154ZM53.4371 22.2559V21.2559H52.4371V22.2559H53.4371ZM53.4371 23.382V24.382H54.4371V23.382H53.4371ZM51.1849 23.382V22.382H50.1849V23.382H51.1849ZM51.1849 24.5081V25.5081H52.1849V24.5081H51.1849ZM50.0656 24.5081V23.5081H49.0656V24.5081H50.0656ZM50.0656 26.7603H49.0656V27.7603H50.0656V26.7603ZM51.1849 26.7603H52.1849V25.7603H51.1849V26.7603ZM51.1849 27.8864H50.1849V28.8864H51.1849V27.8864ZM52.311 27.8864H53.311V26.8864H52.311V27.8864ZM52.311 29.0056H51.311V30.0056H52.311V29.0056ZM56.8154 29.0056V30.0056H57.8154V29.0056H56.8154ZM59.0607 27.8864H60.0607V26.8864H59.0607V27.8864ZM54.5632 27.8864H53.5632V28.8864H54.5632V27.8864ZM54.5632 26.7603H55.5632V25.7603H54.5632V26.7603ZM53.4371 26.7603H52.4371V27.7603H53.4371V26.7603ZM53.4371 24.5081V23.5081H52.4371V24.5081H53.4371ZM54.5632 24.5081V25.5081H55.5632V24.5081H54.5632ZM54.5632 23.382V22.382H53.5632V23.382H54.5632ZM56.8154 23.382V24.382H57.8154V23.382H56.8154ZM57.9346 22.2559H58.9346V21.2559H57.9346V22.2559ZM57.9346 26.7603V27.7603H58.9346V26.7603H57.9346ZM56.8154 26.7603V25.7603H55.8154V26.7603H56.8154ZM64.1281 29.0056H63.1281V30.0056H64.1281V29.0056ZM69.7518 29.0056V30.0056H70.7518V29.0056H69.7518ZM64.1281 27.8864V26.8864H63.1281V27.8864H64.1281ZM65.2474 27.8864V28.8864H66.2474V27.8864H65.2474ZM65.2474 20.0105H66.2474V19.0105H65.2474V20.0105ZM64.1281 20.0105H63.1281V21.0105H64.1281V20.0105ZM64.1281 18.8844V17.8844H63.1281V18.8844H64.1281ZM65.2474 18.8844V19.8844H66.2474V18.8844H65.2474ZM65.2474 17.7584V16.7584H64.2474V17.7584H65.2474ZM66.3735 17.7584V18.7584H67.3735V17.7584H66.3735ZM66.3735 16.6323V15.6323H65.3735V16.6323H66.3735ZM67.4996 16.6323V17.6323H68.4996V16.6323H67.4996ZM67.4996 15.5062V14.5062H66.4996V15.5062H67.4996ZM68.6257 15.5062H69.6257V14.5062H68.6257V15.5062ZM68.6257 17.7584H67.6257V18.7584H68.6257V17.7584ZM69.7518 18.8844V19.8844H70.7518V18.8844H69.7518ZM68.6257 18.8844V17.8844H67.6257V18.8844H68.6257ZM68.6257 27.8864H67.6257V28.8864H68.6257V27.8864ZM69.7518 27.8864H70.7518V26.8864H69.7518V27.8864ZM72.5601 17.7584H73.5601V16.7584H72.5601V17.7584ZM69.7518 16.6323V15.6323H68.7518V16.6323H69.7518ZM74.8123 16.6323H75.8123V15.6323H74.8123V16.6323ZM74.8123 17.7584H73.8123V18.7584H74.8123V17.7584ZM75.9384 17.7584H76.9384V16.7584H75.9384V17.7584ZM75.9384 18.8844H74.9384V19.8844H75.9384V18.8844ZM77.0645 18.8844H78.0645V17.8844H77.0645V18.8844ZM77.0645 27.8864H76.0645V28.8864H77.0645V27.8864ZM78.1906 27.8864H79.1906V26.8864H78.1906V27.8864ZM78.1906 29.0056V30.0056H79.1906V29.0056H78.1906ZM72.5601 29.0056H71.5601V30.0056H72.5601V29.0056ZM72.5601 27.8864V26.8864H71.5601V27.8864H72.5601ZM73.6862 27.8864V28.8864H74.6862V27.8864H73.6862ZM73.6862 18.8844H74.6862V17.8844H73.6862V18.8844ZM72.5601 18.8844H71.5601V19.8844H72.5601V18.8844ZM103.5 29.0056H102.5V30.0056H103.5V29.0056ZM106.879 29.0056V30.0056H107.879V29.0056H106.879ZM103.5 27.8864H104.5V26.8864H103.5V27.8864ZM101.255 26.7603V25.7603H100.255V26.7603H101.255ZM102.374 26.7603V27.7603H103.374V26.7603H102.374ZM102.374 22.2559H103.374V21.2559H102.374V22.2559ZM101.255 21.1366V20.1366H100.255V21.1366H101.255ZM102.374 21.1366V22.1366H103.374V21.1366H102.374ZM102.374 18.8844H103.374V17.8844H102.374V18.8844ZM101.255 18.8844H100.255V19.8844H101.255V18.8844ZM101.255 17.7584H102.255V16.7584H101.255V17.7584ZM99.0029 17.7584V16.7584H98.0029V17.7584H99.0029ZM99.0029 18.8844V19.8844H100.003V18.8844H99.0029ZM97.8768 18.8844V17.8844H96.8768V18.8844H97.8768ZM97.8768 20.0105V21.0105H98.8768V20.0105H97.8768ZM94.5053 20.0105H93.5053V21.0105H94.5053V20.0105ZM94.5053 18.8844V17.8844H93.5053V18.8844H94.5053ZM95.6246 18.8844V19.8844H96.6246V18.8844H95.6246ZM95.6246 17.7584V16.7584H94.6246V17.7584H95.6246ZM96.7507 17.7584V18.7584H97.7507V17.7584H96.7507ZM96.7507 16.6323V15.6323H95.7507V16.6323H96.7507ZM103.5 16.6323H104.5V15.6323H103.5V16.6323ZM103.5 17.7584H102.5V18.7584H103.5V17.7584ZM104.626 17.7584H105.626V16.7584H104.626V17.7584ZM104.626 18.8844H103.626V19.8844H104.626V18.8844ZM105.753 18.8844H106.753V17.8844H105.753V18.8844ZM105.753 27.8864H104.753V28.8864H105.753V27.8864ZM106.879 27.8864H107.879V26.8864H106.879V27.8864ZM101.255 23.382V24.382H102.255V23.382H101.255ZM99.0029 23.382V22.382H98.0029V23.382H99.0029ZM99.0029 24.5081V25.5081H100.003V24.5081H99.0029ZM97.8768 24.5081V23.5081H96.8768V24.5081H97.8768ZM97.8768 26.7603H96.8768V27.7603H97.8768V26.7603ZM99.0029 26.7603H100.003V25.7603H99.0029V26.7603ZM99.0029 27.8864H98.0029V28.8864H99.0029V27.8864ZM101.255 29.0056V30.0056H102.255V29.0056H101.255ZM96.7507 29.0056H95.7507V30.0056H96.7507V29.0056ZM96.7507 27.8864H97.7507V26.8864H96.7507V27.8864ZM95.6246 27.8864H94.6246V28.8864H95.6246V27.8864ZM95.6246 26.7603H96.6246V25.7603H95.6246V26.7603ZM94.5053 26.7603H93.5053V27.7603H94.5053V26.7603ZM94.5053 24.5081V23.5081H93.5053V24.5081H94.5053ZM95.6246 24.5081V25.5081H96.6246V24.5081H95.6246ZM95.6246 23.382V22.382H94.6246V23.382H95.6246ZM97.8768 23.382V24.382H98.8768V23.382H97.8768ZM97.8768 22.2559V21.2559H96.8768V22.2559H97.8768ZM125.452 29.0056V30.0056H126.452V29.0056H125.452ZM117.577 29.0056H116.577V30.0056H117.577V29.0056ZM125.452 27.8864H126.452V26.8864H125.452V27.8864ZM123.2 27.8864H122.2V28.8864H123.2V27.8864ZM124.326 21.1366V22.1366H125.326V21.1366H124.326ZM125.452 18.8844V19.8844H126.452V18.8844H125.452ZM126.579 16.6323V17.6323H127.579V16.6323H126.579ZM127.705 14.3869V15.3869H128.705V14.3869H127.705ZM127.705 12.1347V11.1347H126.705V12.1347H127.705ZM129.95 12.1347V13.1347H130.95V12.1347H129.95ZM129.95 11.0086H130.95V10.0086H129.95V11.0086ZM124.326 11.0086V10.0086H123.326V11.0086H124.326ZM124.326 12.1347H123.326V13.1347H124.326V12.1347ZM126.579 12.1347H127.579V11.1347H126.579V12.1347ZM125.452 14.3869V13.3869H124.452V14.3869H125.452ZM124.326 16.6323V15.6323H123.326V16.6323H124.326ZM123.2 18.8844V17.8844H122.2V18.8844H123.2ZM122.074 21.1366H121.074V22.1366H122.074V21.1366ZM122.074 18.8844H123.074V17.8844H122.074V18.8844ZM120.955 18.8844H119.955V19.8844H120.955V18.8844ZM120.955 16.6323H121.955V15.6323H120.955V16.6323ZM119.829 16.6323H118.829V17.6323H119.829V16.6323ZM119.829 14.3869H120.829V13.3869H119.829V14.3869ZM118.703 14.3869H117.703V15.3869H118.703V14.3869ZM118.703 12.1347V11.1347H117.703V12.1347H118.703ZM120.955 12.1347V13.1347H121.955V12.1347H120.955ZM120.955 11.0086H121.955V10.0086H120.955V11.0086ZM113.086 11.0086V10.0086H112.086V11.0086H113.086ZM113.086 12.1347H112.086V13.1347H113.086V12.1347ZM115.324 12.1347H116.324V11.1347H115.324V12.1347ZM115.324 14.3869H114.324V15.3869H115.324V14.3869ZM116.451 14.3869H117.451V13.3869H116.451V14.3869ZM116.451 16.6323H115.451V17.6323H116.451V16.6323ZM117.577 16.6323H118.577V15.6323H117.577V16.6323ZM117.577 18.8844H116.577V19.8844H117.577V18.8844ZM118.703 18.8844H119.703V17.8844H118.703V18.8844ZM118.703 21.1366H117.703V22.1366H118.703V21.1366ZM119.829 21.1366H120.829V20.1366H119.829V21.1366ZM119.829 27.8864V28.8864H120.829V27.8864H119.829ZM117.577 27.8864V26.8864H116.577V27.8864H117.577ZM131.055 29.0056H130.055V30.0056H131.055V29.0056ZM137.805 29.0056V30.0056H138.805V29.0056H137.805ZM131.055 27.8864H132.055V26.8864H131.055V27.8864ZM129.929 27.8864H128.929V28.8864H129.929V27.8864ZM129.929 26.7603H130.929V25.7603H129.929V26.7603ZM128.803 26.7603H127.803V27.7603H128.803V26.7603ZM128.803 24.5081H129.803V23.5081H128.803V24.5081ZM127.684 24.5081H126.684V25.5081H127.684V24.5081ZM127.684 21.1366V20.1366H126.684V21.1366H127.684ZM128.803 21.1366V22.1366H129.803V21.1366H128.803ZM128.803 18.8844V17.8844H127.803V18.8844H128.803ZM129.929 18.8844V19.8844H130.929V18.8844H129.929ZM129.929 17.7584V16.7584H128.929V17.7584H129.929ZM131.055 17.7584V18.7584H132.055V17.7584H131.055ZM131.055 16.6323V15.6323H130.055V16.6323H131.055ZM137.805 16.6323H138.805V15.6323H137.805V16.6323ZM137.805 17.7584H136.805V18.7584H137.805V17.7584ZM138.931 17.7584H139.931V16.7584H138.931V17.7584ZM138.931 18.8844H137.931V19.8844H138.931V18.8844ZM140.057 18.8844H141.057V17.8844H140.057V18.8844ZM140.057 21.1366V22.1366H141.057V21.1366H140.057ZM131.055 21.1366V20.1366H130.055V21.1366H131.055ZM131.055 24.5081H130.055V25.5081H131.055V24.5081ZM132.182 24.5081H133.182V23.5081H132.182V24.5081ZM132.182 26.7603H131.182V27.7603H132.182V26.7603ZM133.308 26.7603H134.308V25.7603H133.308V26.7603ZM133.308 27.8864H132.308V28.8864H133.308V27.8864ZM138.931 27.8864V28.8864H139.931V27.8864H138.931ZM137.805 26.7603V25.7603H136.805V26.7603H137.805ZM138.931 25.6342V24.6342H137.931V25.6342H138.931ZM140.057 25.6342H141.057V24.6342H140.057V25.6342ZM140.057 26.7603V27.7603H141.057V26.7603H140.057ZM136.679 20.0105V21.0105H137.679V20.0105H136.679ZM131.055 20.0105H130.055V21.0105H131.055V20.0105ZM136.679 18.8844H137.679V17.8844H136.679V18.8844ZM135.553 18.8844H134.553V19.8844H135.553V18.8844ZM135.553 17.7584H136.553V16.7584H135.553V17.7584ZM132.182 17.7584V16.7584H131.182V17.7584H132.182ZM132.182 18.8844V19.8844H133.182V18.8844H132.182ZM131.055 18.8844V17.8844H130.055V18.8844H131.055ZM146.821 29.0056V30.0056H147.821V29.0056H146.821ZM141.197 29.0056H140.197V30.0056H141.197V29.0056ZM146.821 27.8864H147.821V26.8864H146.821V27.8864ZM145.695 27.8864H144.695V28.8864H145.695V27.8864ZM145.695 18.8844V17.8844H144.695V18.8844H145.695ZM146.821 18.8844V19.8844H147.821V18.8844H146.821ZM149.629 17.7584H150.629V16.7584H149.629V17.7584ZM149.629 18.8844H148.629V19.8844H149.629V18.8844ZM150.755 18.8844H151.755V17.8844H150.755V18.8844ZM150.755 27.8864V28.8864H151.755V27.8864H150.755ZM149.629 27.8864V26.8864H148.629V27.8864H149.629ZM149.629 29.0056H148.629V30.0056H149.629V29.0056ZM155.26 29.0056V30.0056H156.26V29.0056H155.26ZM155.26 27.8864H156.26V26.8864H155.26V27.8864ZM154.134 27.8864H153.134V28.8864H154.134V27.8864ZM154.134 18.8844H155.134V17.8844H154.134V18.8844ZM153.008 18.8844H152.008V19.8844H153.008V18.8844ZM153.008 17.7584H154.008V16.7584H153.008V17.7584ZM151.881 17.7584H150.881V18.7584H151.881V17.7584ZM151.881 16.6323H152.881V15.6323H151.881V16.6323ZM146.821 16.6323V15.6323H145.821V16.6323H146.821ZM145.695 17.7584H144.695V18.7584H145.695V17.7584ZM145.695 7.63719H146.695V6.63719H145.695V7.63719ZM144.569 7.63719V6.63719H143.569V7.63719H144.569ZM144.569 8.75643V9.75643H145.569V8.75643H144.569ZM143.443 8.75643V7.75643H142.443V8.75643H143.443ZM143.443 9.88253V10.8825H144.443V9.88253H143.443ZM142.316 9.88253V8.88253H141.316V9.88253H142.316ZM142.316 11.0086V12.0086H143.316V11.0086H142.316ZM141.197 11.0086V10.0086H140.197V11.0086H141.197ZM141.197 12.1347H140.197V13.1347H141.197V12.1347ZM142.316 12.1347H143.316V11.1347H142.316V12.1347ZM142.316 27.8864V28.8864H143.316V27.8864H142.316ZM141.197 27.8864V26.8864H140.197V27.8864H141.197ZM0 1H164V-1H0V1ZM1 38.5882V0H-1V38.5882H1ZM164 37.5882H0V39.5882H164V37.5882ZM163 0V38.5882H165V0H163ZM89.3118 29.0056V27.8864H87.3118V29.0056H89.3118ZM92.8162 28.0056H88.3118V30.0056H92.8162V28.0056ZM91.8162 27.8864V29.0056H93.8162V27.8864H91.8162ZM91.6901 28.8864H92.8162V26.8864H91.6901V28.8864ZM90.6901 7.63719V27.8864H92.6901V7.63719H90.6901ZM90.564 8.63719H91.6901V6.63719H90.564V8.63719ZM91.564 8.75643V7.63719H89.564V8.75643H91.564ZM89.4379 9.75643H90.564V7.75643H89.4379V9.75643ZM90.4379 9.88253V8.75643H88.4379V9.88253H90.4379ZM88.3118 10.8825H89.4379V8.88253H88.3118V10.8825ZM89.3118 11.0086V9.88253H87.3118V11.0086H89.3118ZM87.1857 12.0086H88.3118V10.0086H87.1857V12.0086ZM88.1857 12.1347V11.0086H86.1857V12.1347H88.1857ZM88.3118 11.1347H87.1857V13.1347H88.3118V11.1347ZM89.3118 17.7584V12.1347H87.3118V17.7584H89.3118ZM87.1857 18.7584H88.3118V16.7584H87.1857V18.7584ZM86.1857 16.6323V17.7584H88.1857V16.6323H86.1857ZM82.6882 17.6323H87.1857V15.6323H82.6882V17.6323ZM83.6882 17.7584V16.6323H81.6882V17.7584H83.6882ZM81.5621 18.7584H82.6882V16.7584H81.5621V18.7584ZM82.5621 18.8844V17.7584H80.5621V18.8844H82.5621ZM80.436 19.8844H81.5621V17.8844H80.436V19.8844ZM81.436 21.1366V18.8844H79.436V21.1366H81.436ZM79.3167 22.1366H80.436V20.1366H79.3167V22.1366ZM80.3167 24.5081V21.1366H78.3167V24.5081H80.3167ZM80.436 23.5081H79.3167V25.5081H80.436V23.5081ZM81.436 26.7603V24.5081H79.436V26.7603H81.436ZM81.5621 25.7603H80.436V27.7603H81.5621V25.7603ZM82.5621 27.8864V26.7603H80.5621V27.8864H82.5621ZM82.6882 26.8864H81.5621V28.8864H82.6882V26.8864ZM83.6882 29.0056V27.8864H81.6882V29.0056H83.6882ZM87.1857 28.0056H82.6882V30.0056H87.1857V28.0056ZM86.1857 27.8864V29.0056H88.1857V27.8864H86.1857ZM88.3118 26.8864H87.1857V28.8864H88.3118V26.8864ZM84.9404 28.8864H87.1857V26.8864H84.9404V28.8864ZM83.9404 26.7603V27.8864H85.9404V26.7603H83.9404ZM83.8143 27.7603H84.9404V25.7603H83.8143V27.7603ZM82.8143 24.5081V26.7603H84.8143V24.5081H82.8143ZM82.6882 25.5081H83.8143V23.5081H82.6882V25.5081ZM81.6882 21.1366V24.5081H83.6882V21.1366H81.6882ZM83.8143 20.1366H82.6882V22.1366H83.8143V20.1366ZM82.8143 18.8844V21.1366H84.8143V18.8844H82.8143ZM84.9404 17.8844H83.8143V19.8844H84.9404V17.8844ZM83.9404 17.7584V18.8844H85.9404V17.7584H83.9404ZM87.1857 16.7584H84.9404V18.7584H87.1857V16.7584ZM88.1857 18.8844V17.7584H86.1857V18.8844H88.1857ZM88.3118 17.8844H87.1857V19.8844H88.3118V17.8844ZM89.3118 26.7603V18.8844H87.3118V26.7603H89.3118ZM87.1857 27.7603H88.3118V25.7603H87.1857V27.7603ZM88.1857 27.8864V26.7603H86.1857V27.8864H88.1857ZM17.4294 30.0056H25.3052V28.0056H17.4294V30.0056ZM16.4294 27.8864V29.0056H18.4294V27.8864H16.4294ZM19.6816 26.8864H17.4294V28.8864H19.6816V26.8864ZM18.6816 24.5081V27.8864H20.6816V24.5081H18.6816ZM18.5555 25.5081H19.6816V23.5081H18.5555V25.5081ZM17.5555 23.382V24.5081H19.5555V23.382H17.5555ZM12.9318 24.382H18.5555V22.382H12.9318V24.382ZM13.9318 24.5081V23.382H11.9318V24.5081H13.9318ZM11.8057 25.5081H12.9318V23.5081H11.8057V25.5081ZM10.8057 21.1366V24.5081H12.8057V21.1366H10.8057ZM12.9318 20.1366H11.8057V22.1366H12.9318V20.1366ZM13.9318 22.2559V21.1366H11.9318V22.2559H13.9318ZM18.5555 21.2559H12.9318V23.2559H18.5555V21.2559ZM17.5555 21.1366V22.2559H19.5555V21.1366H17.5555ZM17.4294 22.1366H18.5555V20.1366H17.4294V22.1366ZM16.4294 17.7584V21.1366H18.4294V17.7584H16.4294ZM16.3101 18.7584H17.4294V16.7584H16.3101V18.7584ZM15.3101 14.3869V17.7584H17.3101V14.3869H15.3101ZM15.184 15.3869H16.3101V13.3869H15.184V15.3869ZM14.184 11.0086V14.3869H16.184V11.0086H14.184ZM16.3101 10.0086H15.184V12.0086H16.3101V10.0086ZM15.3101 9.88253V11.0086H17.3101V9.88253H15.3101ZM18.5555 8.88253H16.3101V10.8825H18.5555V8.88253ZM19.5555 14.3869V9.88253H17.5555V14.3869H19.5555ZM19.6816 13.3869H18.5555V15.3869H19.6816V13.3869ZM20.6816 17.7584V14.3869H18.6816V17.7584H20.6816ZM20.8077 16.7584H19.6816V18.7584H20.8077V16.7584ZM21.8077 21.1366V17.7584H19.8077V21.1366H21.8077ZM21.9338 20.1366H20.8077V22.1366H21.9338V20.1366ZM22.9338 24.5081V21.1366H20.9338V24.5081H22.9338ZM23.0599 23.5081H21.9338V25.5081H23.0599V23.5081ZM24.0599 27.8864V24.5081H22.0599V27.8864H24.0599ZM25.3052 26.8864H23.0599V28.8864H25.3052V26.8864ZM26.3052 29.0056V27.8864H24.3052V29.0056H26.3052ZM13.0579 14.3869V17.7584H15.0579V14.3869H13.0579ZM15.184 13.3869H14.0579V15.3869H15.184V13.3869ZM16.184 17.7584V14.3869H14.184V17.7584H16.184ZM14.0579 18.7584H15.184V16.7584H14.0579V18.7584ZM14.0579 16.7584H12.9318V18.7584H14.0579V16.7584ZM11.9318 17.7584V21.1366H13.9318V17.7584H11.9318ZM12.9318 22.1366H14.0579V20.1366H12.9318V22.1366ZM15.0579 21.1366V17.7584H13.0579V21.1366H15.0579ZM11.8057 23.5081H10.6796V25.5081H11.8057V23.5081ZM12.8057 27.8864V24.5081H10.8057V27.8864H12.8057ZM14.0579 26.8864H11.8057V28.8864H14.0579V26.8864ZM15.0579 29.0056V27.8864H13.0579V29.0056H15.0579ZM8.44118 30.0056H14.0579V28.0056H8.44118V30.0056ZM7.44118 27.8864V29.0056H9.44118V27.8864H7.44118ZM10.6796 26.8864H8.44118V28.8864H10.6796V26.8864ZM9.67965 24.5081V27.8864H11.6796V24.5081H9.67965ZM26.9943 30.0056H32.618V28.0056H26.9943V30.0056ZM25.9943 27.8864V29.0056H27.9943V27.8864H25.9943ZM28.1136 26.8864H26.9943V28.8864H28.1136V26.8864ZM27.1136 20.0105V27.8864H29.1136V20.0105H27.1136ZM26.9943 21.0105H28.1136V19.0105H26.9943V21.0105ZM25.9943 18.8844V20.0105H27.9943V18.8844H25.9943ZM28.1136 17.8844H26.9943V19.8844H28.1136V17.8844ZM27.1136 17.7584V18.8844H29.1136V17.7584H27.1136ZM29.2397 16.7584H28.1136V18.7584H29.2397V16.7584ZM28.2397 16.6323V17.7584H30.2397V16.6323H28.2397ZM30.3658 15.6323H29.2397V17.6323H30.3658V15.6323ZM29.3658 15.5062V16.6323H31.3658V15.5062H29.3658ZM31.4919 14.5062H30.3658V16.5062H31.4919V14.5062ZM32.4919 17.7584V15.5062H30.4919V17.7584H32.4919ZM32.618 16.7584H31.4919V18.7584H32.618V16.7584ZM33.618 18.8844V17.7584H31.618V18.8844H33.618ZM31.4919 19.8844H32.618V17.8844H31.4919V19.8844ZM32.4919 27.8864V18.8844H30.4919V27.8864H32.4919ZM32.618 26.8864H31.4919V28.8864H32.618V26.8864ZM33.618 29.0056V27.8864H31.618V29.0056H33.618ZM40.3677 27.8864V18.8844H38.3677V27.8864H40.3677ZM40.4938 26.8864H39.3677V28.8864H40.4938V26.8864ZM41.4938 29.0056V27.8864H39.4938V29.0056H41.4938ZM34.8633 30.0056H40.4938V28.0056H34.8633V30.0056ZM33.8633 27.8864V29.0056H35.8633V27.8864H33.8633ZM35.9894 26.8864H34.8633V28.8864H35.9894V26.8864ZM34.9894 18.8844V27.8864H36.9894V18.8844H34.9894ZM34.8633 19.8844H35.9894V17.8844H34.8633V19.8844ZM33.8633 17.7584V18.8844H35.8633V17.7584H33.8633ZM32.618 18.7584H34.8633V16.7584H32.618V18.7584ZM31.618 16.6323V17.7584H33.618V16.6323H31.618ZM37.1155 15.6323H32.618V17.6323H37.1155V15.6323ZM38.1155 17.7584V16.6323H36.1155V17.7584H38.1155ZM38.2416 16.7584H37.1155V18.7584H38.2416V16.7584ZM39.2416 18.8844V17.7584H37.2416V18.8844H39.2416ZM39.3677 17.8844H38.2416V19.8844H39.3677V17.8844ZM41.4938 18.8844V17.7584H39.4938V18.8844H41.4938ZM39.3677 19.8844H40.4938V17.8844H39.3677V19.8844ZM38.3677 17.7584V18.8844H40.3677V17.7584H38.3677ZM40.4938 16.7584H39.3677V18.7584H40.4938V16.7584ZM40.4938 18.7584H42.7391V16.7584H40.4938V18.7584ZM41.7391 17.7584V18.8844H43.7391V17.7584H41.7391ZM42.7391 19.8844H43.8652V17.8844H42.7391V19.8844ZM42.8652 18.8844V27.8864H44.8652V18.8844H42.8652ZM43.8652 26.8864H42.7391V28.8864H43.8652V26.8864ZM41.7391 27.8864V29.0056H43.7391V27.8864H41.7391ZM42.7391 30.0056H48.3628V28.0056H42.7391V30.0056ZM49.3628 29.0056V27.8864H47.3628V29.0056H49.3628ZM48.3628 26.8864H47.2435V28.8864H48.3628V26.8864ZM48.2435 27.8864V18.8844H46.2435V27.8864H48.2435ZM47.2435 17.8844H46.1174V19.8844H47.2435V17.8844ZM47.1174 18.8844V17.7584H45.1174V18.8844H47.1174ZM46.1174 16.7584H44.9913V18.7584H46.1174V16.7584ZM45.9913 17.7584V16.6323H43.9913V17.7584H45.9913ZM44.9913 15.6323H40.4938V17.6323H44.9913V15.6323ZM39.4938 16.6323V17.7584H41.4938V16.6323H39.4938ZM62.439 28.0056H59.0607V30.0056H62.439V28.0056ZM61.439 27.8864V29.0056H63.439V27.8864H61.439ZM61.3129 28.8864H62.439V26.8864H61.3129V28.8864ZM60.3129 18.8844V27.8864H62.3129V18.8844H60.3129ZM60.1868 19.8844H61.3129V17.8844H60.1868V19.8844ZM59.1868 17.7584V18.8844H61.1868V17.7584H59.1868ZM59.0607 18.7584H60.1868V16.7584H59.0607V18.7584ZM58.0607 16.6323V17.7584H60.0607V16.6323H58.0607ZM52.311 17.6323H59.0607V15.6323H52.311V17.6323ZM53.311 17.7584V16.6323H51.311V17.7584H53.311ZM51.1849 18.7584H52.311V16.7584H51.1849V18.7584ZM52.1849 18.8844V17.7584H50.1849V18.8844H52.1849ZM50.0656 19.8844H51.1849V17.8844H50.0656V19.8844ZM51.0656 20.0105V18.8844H49.0656V20.0105H51.0656ZM53.4371 19.0105H50.0656V21.0105H53.4371V19.0105ZM52.4371 18.8844V20.0105H54.4371V18.8844H52.4371ZM54.5632 17.8844H53.4371V19.8844H54.5632V17.8844ZM53.5632 17.7584V18.8844H55.5632V17.7584H53.5632ZM56.8154 16.7584H54.5632V18.7584H56.8154V16.7584ZM57.8154 18.8844V17.7584H55.8154V18.8844H57.8154ZM57.9346 17.8844H56.8154V19.8844H57.9346V17.8844ZM58.9346 21.1366V18.8844H56.9346V21.1366H58.9346ZM56.8154 22.1366H57.9346V20.1366H56.8154V22.1366ZM57.8154 22.2559V21.1366H55.8154V22.2559H57.8154ZM53.4371 23.2559H56.8154V21.2559H53.4371V23.2559ZM54.4371 23.382V22.2559H52.4371V23.382H54.4371ZM51.1849 24.382H53.4371V22.382H51.1849V24.382ZM52.1849 24.5081V23.382H50.1849V24.5081H52.1849ZM50.0656 25.5081H51.1849V23.5081H50.0656V25.5081ZM51.0656 26.7603V24.5081H49.0656V26.7603H51.0656ZM51.1849 25.7603H50.0656V27.7603H51.1849V25.7603ZM52.1849 27.8864V26.7603H50.1849V27.8864H52.1849ZM52.311 26.8864H51.1849V28.8864H52.311V26.8864ZM53.311 29.0056V27.8864H51.311V29.0056H53.311ZM56.8154 28.0056H52.311V30.0056H56.8154V28.0056ZM55.8154 27.8864V29.0056H57.8154V27.8864H55.8154ZM59.0607 26.8864H56.8154V28.8864H59.0607V26.8864ZM60.0607 29.0056V27.8864H58.0607V29.0056H60.0607ZM54.5632 28.8864H56.8154V26.8864H54.5632V28.8864ZM53.5632 26.7603V27.8864H55.5632V26.7603H53.5632ZM53.4371 27.7603H54.5632V25.7603H53.4371V27.7603ZM52.4371 24.5081V26.7603H54.4371V24.5081H52.4371ZM54.5632 23.5081H53.4371V25.5081H54.5632V23.5081ZM53.5632 23.382V24.5081H55.5632V23.382H53.5632ZM56.8154 22.382H54.5632V24.382H56.8154V22.382ZM55.8154 22.2559V23.382H57.8154V22.2559H55.8154ZM57.9346 21.2559H56.8154V23.2559H57.9346V21.2559ZM58.9346 26.7603V22.2559H56.9346V26.7603H58.9346ZM56.8154 27.7603H57.9346V25.7603H56.8154V27.7603ZM57.8154 27.8864V26.7603H55.8154V27.8864H57.8154ZM64.1281 30.0056H69.7518V28.0056H64.1281V30.0056ZM63.1281 27.8864V29.0056H65.1281V27.8864H63.1281ZM65.2474 26.8864H64.1281V28.8864H65.2474V26.8864ZM64.2474 20.0105V27.8864H66.2474V20.0105H64.2474ZM64.1281 21.0105H65.2474V19.0105H64.1281V21.0105ZM63.1281 18.8844V20.0105H65.1281V18.8844H63.1281ZM65.2474 17.8844H64.1281V19.8844H65.2474V17.8844ZM64.2474 17.7584V18.8844H66.2474V17.7584H64.2474ZM66.3735 16.7584H65.2474V18.7584H66.3735V16.7584ZM65.3735 16.6323V17.7584H67.3735V16.6323H65.3735ZM67.4996 15.6323H66.3735V17.6323H67.4996V15.6323ZM66.4996 15.5062V16.6323H68.4996V15.5062H66.4996ZM68.6257 14.5062H67.4996V16.5062H68.6257V14.5062ZM69.6257 17.7584V15.5062H67.6257V17.7584H69.6257ZM69.7518 16.7584H68.6257V18.7584H69.7518V16.7584ZM70.7518 18.8844V17.7584H68.7518V18.8844H70.7518ZM68.6257 19.8844H69.7518V17.8844H68.6257V19.8844ZM69.6257 27.8864V18.8844H67.6257V27.8864H69.6257ZM69.7518 26.8864H68.6257V28.8864H69.7518V26.8864ZM70.7518 29.0056V27.8864H68.7518V29.0056H70.7518ZM69.7518 18.7584H72.5601V16.7584H69.7518V18.7584ZM68.7518 16.6323V17.7584H70.7518V16.6323H68.7518ZM74.8123 15.6323H69.7518V17.6323H74.8123V15.6323ZM75.8123 17.7584V16.6323H73.8123V17.7584H75.8123ZM75.9384 16.7584H74.8123V18.7584H75.9384V16.7584ZM76.9384 18.8844V17.7584H74.9384V18.8844H76.9384ZM77.0645 17.8844H75.9384V19.8844H77.0645V17.8844ZM78.0645 27.8864V18.8844H76.0645V27.8864H78.0645ZM78.1906 26.8864H77.0645V28.8864H78.1906V26.8864ZM79.1906 29.0056V27.8864H77.1906V29.0056H79.1906ZM72.5601 30.0056H78.1906V28.0056H72.5601V30.0056ZM71.5601 27.8864V29.0056H73.5601V27.8864H71.5601ZM73.6862 26.8864H72.5601V28.8864H73.6862V26.8864ZM72.6862 18.8844V27.8864H74.6862V18.8844H72.6862ZM72.5601 19.8844H73.6862V17.8844H72.5601V19.8844ZM71.5601 17.7584V18.8844H73.5601V17.7584H71.5601ZM103.5 30.0056H106.879V28.0056H103.5V30.0056ZM102.5 27.8864V29.0056H104.5V27.8864H102.5ZM101.255 28.8864H103.5V26.8864H101.255V28.8864ZM100.255 26.7603V27.8864H102.255V26.7603H100.255ZM102.374 25.7603H101.255V27.7603H102.374V25.7603ZM101.374 22.2559V26.7603H103.374V22.2559H101.374ZM101.255 23.2559H102.374V21.2559H101.255V23.2559ZM100.255 21.1366V22.2559H102.255V21.1366H100.255ZM102.374 20.1366H101.255V22.1366H102.374V20.1366ZM101.374 18.8844V21.1366H103.374V18.8844H101.374ZM101.255 19.8844H102.374V17.8844H101.255V19.8844ZM100.255 17.7584V18.8844H102.255V17.7584H100.255ZM99.0029 18.7584H101.255V16.7584H99.0029V18.7584ZM100.003 18.8844V17.7584H98.0029V18.8844H100.003ZM97.8768 19.8844H99.0029V17.8844H97.8768V19.8844ZM98.8768 20.0105V18.8844H96.8768V20.0105H98.8768ZM94.5053 21.0105H97.8768V19.0105H94.5053V21.0105ZM93.5053 18.8844V20.0105H95.5053V18.8844H93.5053ZM95.6246 17.8844H94.5053V19.8844H95.6246V17.8844ZM94.6246 17.7584V18.8844H96.6246V17.7584H94.6246ZM96.7507 16.7584H95.6246V18.7584H96.7507V16.7584ZM95.7507 16.6323V17.7584H97.7507V16.6323H95.7507ZM103.5 15.6323H96.7507V17.6323H103.5V15.6323ZM104.5 17.7584V16.6323H102.5V17.7584H104.5ZM104.626 16.7584H103.5V18.7584H104.626V16.7584ZM105.626 18.8844V17.7584H103.626V18.8844H105.626ZM105.753 17.8844H104.626V19.8844H105.753V17.8844ZM106.753 27.8864V18.8844H104.753V27.8864H106.753ZM106.879 26.8864H105.753V28.8864H106.879V26.8864ZM107.879 29.0056V27.8864H105.879V29.0056H107.879ZM102.255 23.382V22.2559H100.255V23.382H102.255ZM99.0029 24.382H101.255V22.382H99.0029V24.382ZM100.003 24.5081V23.382H98.0029V24.5081H100.003ZM97.8768 25.5081H99.0029V23.5081H97.8768V25.5081ZM98.8768 26.7603V24.5081H96.8768V26.7603H98.8768ZM99.0029 25.7603H97.8768V27.7603H99.0029V25.7603ZM100.003 27.8864V26.7603H98.0029V27.8864H100.003ZM101.255 26.8864H99.0029V28.8864H101.255V26.8864ZM102.255 29.0056V27.8864H100.255V29.0056H102.255ZM96.7507 30.0056H101.255V28.0056H96.7507V30.0056ZM95.7507 27.8864V29.0056H97.7507V27.8864H95.7507ZM95.6246 28.8864H96.7507V26.8864H95.6246V28.8864ZM94.6246 26.7603V27.8864H96.6246V26.7603H94.6246ZM94.5053 27.7603H95.6246V25.7603H94.5053V27.7603ZM93.5053 24.5081V26.7603H95.5053V24.5081H93.5053ZM95.6246 23.5081H94.5053V25.5081H95.6246V23.5081ZM94.6246 23.382V24.5081H96.6246V23.382H94.6246ZM97.8768 22.382H95.6246V24.382H97.8768V22.382ZM96.8768 22.2559V23.382H98.8768V22.2559H96.8768ZM101.255 21.2559H97.8768V23.2559H101.255V21.2559ZM125.452 28.0056H117.577V30.0056H125.452V28.0056ZM124.452 27.8864V29.0056H126.452V27.8864H124.452ZM123.2 28.8864H125.452V26.8864H123.2V28.8864ZM122.2 21.1366V27.8864H124.2V21.1366H122.2ZM124.326 20.1366H123.2V22.1366H124.326V20.1366ZM123.326 18.8844V21.1366H125.326V18.8844H123.326ZM125.452 17.8844H124.326V19.8844H125.452V17.8844ZM124.452 16.6323V18.8844H126.452V16.6323H124.452ZM126.579 15.6323H125.452V17.6323H126.579V15.6323ZM125.579 14.3869V16.6323H127.579V14.3869H125.579ZM127.705 13.3869H126.579V15.3869H127.705V13.3869ZM126.705 12.1347V14.3869H128.705V12.1347H126.705ZM129.95 11.1347H127.705V13.1347H129.95V11.1347ZM128.95 11.0086V12.1347H130.95V11.0086H128.95ZM124.326 12.0086H129.95V10.0086H124.326V12.0086ZM125.326 12.1347V11.0086H123.326V12.1347H125.326ZM126.579 11.1347H124.326V13.1347H126.579V11.1347ZM127.579 14.3869V12.1347H125.579V14.3869H127.579ZM125.452 15.3869H126.579V13.3869H125.452V15.3869ZM126.452 16.6323V14.3869H124.452V16.6323H126.452ZM124.326 17.6323H125.452V15.6323H124.326V17.6323ZM125.326 18.8844V16.6323H123.326V18.8844H125.326ZM123.2 19.8844H124.326V17.8844H123.2V19.8844ZM124.2 21.1366V18.8844H122.2V21.1366H124.2ZM122.074 22.1366H123.2V20.1366H122.074V22.1366ZM121.074 18.8844V21.1366H123.074V18.8844H121.074ZM120.955 19.8844H122.074V17.8844H120.955V19.8844ZM119.955 16.6323V18.8844H121.955V16.6323H119.955ZM119.829 17.6323H120.955V15.6323H119.829V17.6323ZM118.829 14.3869V16.6323H120.829V14.3869H118.829ZM118.703 15.3869H119.829V13.3869H118.703V15.3869ZM117.703 12.1347V14.3869H119.703V12.1347H117.703ZM120.955 11.1347H118.703V13.1347H120.955V11.1347ZM119.955 11.0086V12.1347H121.955V11.0086H119.955ZM113.086 12.0086H120.955V10.0086H113.086V12.0086ZM114.086 12.1347V11.0086H112.086V12.1347H114.086ZM115.324 11.1347H113.086V13.1347H115.324V11.1347ZM116.324 14.3869V12.1347H114.324V14.3869H116.324ZM116.451 13.3869H115.324V15.3869H116.451V13.3869ZM117.451 16.6323V14.3869H115.451V16.6323H117.451ZM117.577 15.6323H116.451V17.6323H117.577V15.6323ZM118.577 18.8844V16.6323H116.577V18.8844H118.577ZM118.703 17.8844H117.577V19.8844H118.703V17.8844ZM119.703 21.1366V18.8844H117.703V21.1366H119.703ZM119.829 20.1366H118.703V22.1366H119.829V20.1366ZM120.829 27.8864V21.1366H118.829V27.8864H120.829ZM117.577 28.8864H119.829V26.8864H117.577V28.8864ZM118.577 29.0056V27.8864H116.577V29.0056H118.577ZM131.055 30.0056H137.805V28.0056H131.055V30.0056ZM130.055 27.8864V29.0056H132.055V27.8864H130.055ZM129.929 28.8864H131.055V26.8864H129.929V28.8864ZM128.929 26.7603V27.8864H130.929V26.7603H128.929ZM128.803 27.7603H129.929V25.7603H128.803V27.7603ZM127.803 24.5081V26.7603H129.803V24.5081H127.803ZM127.684 25.5081H128.803V23.5081H127.684V25.5081ZM126.684 21.1366V24.5081H128.684V21.1366H126.684ZM128.803 20.1366H127.684V22.1366H128.803V20.1366ZM127.803 18.8844V21.1366H129.803V18.8844H127.803ZM129.929 17.8844H128.803V19.8844H129.929V17.8844ZM128.929 17.7584V18.8844H130.929V17.7584H128.929ZM131.055 16.7584H129.929V18.7584H131.055V16.7584ZM130.055 16.6323V17.7584H132.055V16.6323H130.055ZM137.805 15.6323H131.055V17.6323H137.805V15.6323ZM138.805 17.7584V16.6323H136.805V17.7584H138.805ZM138.931 16.7584H137.805V18.7584H138.931V16.7584ZM139.931 18.8844V17.7584H137.931V18.8844H139.931ZM140.057 17.8844H138.931V19.8844H140.057V17.8844ZM141.057 21.1366V18.8844H139.057V21.1366H141.057ZM131.055 22.1366H140.057V20.1366H131.055V22.1366ZM132.055 24.5081V21.1366H130.055V24.5081H132.055ZM132.182 23.5081H131.055V25.5081H132.182V23.5081ZM133.182 26.7603V24.5081H131.182V26.7603H133.182ZM133.308 25.7603H132.182V27.7603H133.308V25.7603ZM134.308 27.8864V26.7603H132.308V27.8864H134.308ZM137.805 26.8864H133.308V28.8864H137.805V26.8864ZM138.805 29.0056V27.8864H136.805V29.0056H138.805ZM139.931 27.8864V26.7603H137.931V27.8864H139.931ZM137.805 28.8864H138.931V26.8864H137.805V28.8864ZM136.805 26.7603V27.8864H138.805V26.7603H136.805ZM138.931 25.7603H137.805V27.7603H138.931V25.7603ZM137.931 25.6342V26.7603H139.931V25.6342H137.931ZM140.057 24.6342H138.931V26.6342H140.057V24.6342ZM141.057 26.7603V25.6342H139.057V26.7603H141.057ZM138.931 27.7603H140.057V25.7603H138.931V27.7603ZM136.679 19.0105H131.055V21.0105H136.679V19.0105ZM135.679 18.8844V20.0105H137.679V18.8844H135.679ZM135.553 19.8844H136.679V17.8844H135.553V19.8844ZM134.553 17.7584V18.8844H136.553V17.7584H134.553ZM132.182 18.7584H135.553V16.7584H132.182V18.7584ZM133.182 18.8844V17.7584H131.182V18.8844H133.182ZM131.055 19.8844H132.182V17.8844H131.055V19.8844ZM132.055 20.0105V18.8844H130.055V20.0105H132.055ZM146.821 28.0056H141.197V30.0056H146.821V28.0056ZM145.821 27.8864V29.0056H147.821V27.8864H145.821ZM145.695 28.8864H146.821V26.8864H145.695V28.8864ZM144.695 18.8844V27.8864H146.695V18.8844H144.695ZM146.821 17.8844H145.695V19.8844H146.821V17.8844ZM145.821 17.7584V18.8844H147.821V17.7584H145.821ZM149.629 16.7584H146.821V18.7584H149.629V16.7584ZM150.629 18.8844V17.7584H148.629V18.8844H150.629ZM150.755 17.8844H149.629V19.8844H150.755V17.8844ZM151.755 27.8864V18.8844H149.755V27.8864H151.755ZM149.629 28.8864H150.755V26.8864H149.629V28.8864ZM150.629 29.0056V27.8864H148.629V29.0056H150.629ZM155.26 28.0056H149.629V30.0056H155.26V28.0056ZM154.26 27.8864V29.0056H156.26V27.8864H154.26ZM154.134 28.8864H155.26V26.8864H154.134V28.8864ZM153.134 18.8844V27.8864H155.134V18.8844H153.134ZM153.008 19.8844H154.134V17.8844H153.008V19.8844ZM152.008 17.7584V18.8844H154.008V17.7584H152.008ZM151.881 18.7584H153.008V16.7584H151.881V18.7584ZM150.881 16.6323V17.7584H152.881V16.6323H150.881ZM146.821 17.6323H151.881V15.6323H146.821V17.6323ZM147.821 17.7584V16.6323H145.821V17.7584H147.821ZM145.695 18.7584H146.821V16.7584H145.695V18.7584ZM144.695 7.63719V17.7584H146.695V7.63719H144.695ZM144.569 8.63719H145.695V6.63719H144.569V8.63719ZM145.569 8.75643V7.63719H143.569V8.75643H145.569ZM143.443 9.75643H144.569V7.75643H143.443V9.75643ZM144.443 9.88253V8.75643H142.443V9.88253H144.443ZM142.316 10.8825H143.443V8.88253H142.316V10.8825ZM143.316 11.0086V9.88253H141.316V11.0086H143.316ZM141.197 12.0086H142.316V10.0086H141.197V12.0086ZM142.197 12.1347V11.0086H140.197V12.1347H142.197ZM142.316 11.1347H141.197V13.1347H142.316V11.1347ZM143.316 27.8864V12.1347H141.316V27.8864H143.316ZM141.197 28.8864H142.316V26.8864H141.197V28.8864ZM142.197 29.0056V27.8864H140.197V29.0056H142.197Z" fill="black" mask="url(#path-1-inside-1)"/>
</svg>
