<svg width="16" height="16" viewBox="0 0 16 16" fill="none" xmlns="http://www.w3.org/2000/svg">
<path d="M8.99999 4.03742C8.99999 3.20657 8.04552 2.7381 7.38826 3.24636L4.77018 5.27092C4.59503 5.40637 4.37987 5.47986 4.15846 5.47986L2.49999 5.47987C1.94771 5.47987 1.5 5.92759 1.5 6.47987V9.50852C1.5 10.0608 1.94772 10.5085 2.5 10.5085H4.15755C4.37952 10.5085 4.59519 10.5824 4.77056 10.7184L7.38699 12.7485C8.04402 13.2583 9 12.79 9 11.9584L8.99999 4.03742Z" stroke="black" stroke-width="0.5"/>
<path d="M11 9.74451C11.4186 9.1874 11.6667 8.49491 11.6667 7.74451C11.6667 6.9941 11.4186 6.30161 11 5.74451" stroke="black" stroke-width="0.5" stroke-linecap="round"/>
<path d="M12.834 11.7445C13.6712 10.6303 14.1673 9.24531 14.1673 7.74451C14.1673 6.2437 13.6712 4.85872 12.834 3.74451" stroke="black" stroke-width="0.5" stroke-linecap="round"/>
</svg>
